<svg width="46" height="46" viewBox="0 0 46 46" fill="none" xmlns="http://www.w3.org/2000/svg">
<path d="M12.4838 43.2652H0.673828C0.301605 43.2652 0 42.9635 0 42.5914V16.1225C0 15.7504 0.301605 15.4487 0.673828 15.4487C1.04605 15.4487 1.34766 15.7504 1.34766 16.1225V41.9175H12.4838C12.856 41.9175 13.1576 42.2192 13.1576 42.5914C13.1576 42.9635 12.856 43.2652 12.4838 43.2652Z" fill="#FF841D"/>
<path d="M8.13266 29.7736C7.81497 29.5104 7.49728 29.5104 7.17969 29.7736L3.61738 33.336C3.26384 33.9316 3.42269 34.3151 4.09391 34.4862H5.58711V39.8623C5.58711 40.2344 5.88872 40.5361 6.26094 40.5361H9.05167C9.42389 40.5361 9.7255 40.2344 9.7255 39.8623V34.4862H11.2187C11.8898 34.3151 12.0487 33.9316 11.6952 33.336L8.13266 29.7736ZM9.05149 33.1387C8.67927 33.1387 8.37766 33.4404 8.37766 33.8125V39.1886H6.93468V33.8125C6.93468 33.4404 6.63307 33.1387 6.26085 33.1387H5.72053L7.65613 31.2031L9.59181 33.1387H9.05149Z" fill="#FF841D"/>
<path d="M45.5431 5.6179L37.1706 2.77075C37.0299 2.72295 36.8774 2.72295 36.7367 2.77075L34.3271 3.59012C33.9749 3.70989 33.7863 4.09271 33.9061 4.44499C34.026 4.79735 34.4085 4.98576 34.7611 4.866L36.9536 4.12038L44.6523 6.73843V14.8305C44.6523 19.3414 41.6385 23.339 36.9536 25.0743C32.2686 23.3391 29.255 19.3414 29.255 14.8305V6.73843L31.9813 5.81124C32.3337 5.69139 32.5222 5.30866 32.4023 4.95629C32.2825 4.60401 31.8997 4.4157 31.5474 4.53528L28.3642 5.6179C28.0911 5.7108 27.9074 5.9673 27.9074 6.25588V8.4283H0.673828C0.301605 8.4283 0 8.72999 0 9.10213V13.1855C0 13.5577 0.301605 13.8594 0.673828 13.8594C1.04605 13.8594 1.34766 13.5577 1.34766 13.1855V9.77596H13.2787V18.3448C13.3738 18.8969 13.692 19.101 14.2335 18.9573L17.4185 17.4961L20.6035 18.9573C21.0109 19.1441 21.5583 18.8435 21.5583 18.3448V9.77596H27.9073V14.8306C27.9073 18.884 30.1375 22.6136 33.4893 24.8267V41.9176H15.4208C15.0486 41.9176 14.747 42.2193 14.747 42.5914C14.747 42.9635 15.0486 43.2652 15.4208 43.2652H34.1631C34.5353 43.2652 34.8369 42.9635 34.8369 42.5914V25.6142C35.4399 25.9236 36.0722 26.1953 36.7304 26.4264C36.8792 26.4771 37.028 26.4771 37.1768 26.4264C42.1471 24.6815 46 20.2518 46 14.8306V6.25588C46 5.9673 45.8163 5.7108 45.5431 5.6179V5.6179ZM20.2106 17.2944L17.6995 16.1423C17.5212 16.0604 17.3159 16.0604 17.1376 16.1423L14.6264 17.2944V9.77614H20.2106V17.2944Z" fill="#FF841D"/>
<path d="M30.7199 8.26974V14.8311C30.7199 18.5139 32.9474 21.7104 36.6785 23.3816C36.8621 23.4602 37.0458 23.4602 37.2295 23.3816C40.9604 21.7103 43.1879 18.5139 43.1879 14.8311V8.26974C43.1879 7.98125 43.0042 7.72466 42.731 7.63176L37.1708 5.74126C37.0303 5.69338 36.8776 5.69347 36.737 5.74126L31.1769 7.63176C30.9037 7.72466 30.7199 7.98116 30.7199 8.26974V8.26974ZM32.0676 8.75229L36.954 7.0909L41.8403 8.75229V14.831C41.8403 17.877 40.02 20.5462 36.954 22.0236C33.888 20.5462 32.0676 17.877 32.0676 14.831V8.75229Z" fill="#FF841D"/>
<path d="M22.3262 39.4562C22.3262 39.8283 22.6278 40.13 23 40.13H31.3723C31.7445 40.13 32.0461 39.8283 32.0461 39.4562V36.9537C32.0461 36.5815 31.7445 36.2799 31.3723 36.2799H23C22.6278 36.2799 22.3262 36.5815 22.3262 36.9537V39.4562ZM23.6738 37.6275H30.6984V38.7824H23.6738V37.6275Z" fill="#FF841D"/>
<path d="M31.3716 34.8368H31.3723C31.7441 34.8368 32.0457 34.5356 32.0461 34.1636C32.0465 33.7915 31.745 33.4895 31.373 33.4892L23.0007 33.4808C23.0004 33.4808 23.0003 33.4808 23 33.4808C22.6281 33.4808 22.3265 33.782 22.3262 34.154C22.3258 34.5261 22.6272 34.8281 22.9993 34.8285L31.3716 34.8368Z" fill="#FF841D"/>
<path d="M35.7163 15.933C35.9803 16.1967 36.4085 16.1957 36.6712 15.9304L39.3741 13.2022C39.651 12.9227 39.6811 12.5783 39.3697 12.2493C39.1544 12.0218 38.7526 11.9643 38.4168 12.2538L36.19 14.5014L35.4883 13.8007C34.6198 13.1323 33.901 14.0936 34.536 14.7543L35.7163 15.933Z" fill="#FF841D"/>
</svg>
