<svg width="25" height="26" viewBox="0 0 25 26" fill="none" xmlns="http://www.w3.org/2000/svg">
<path d="M15.7003 5.99853H17.9522C18.4344 5.99853 18.8249 5.60795 18.8249 5.12576V1.50929C18.8249 1.0271 18.4344 0.636521 17.9522 0.636521H14.8613C14.8324 0.631699 14.7793 0.631699 14.707 0.631699C14.1235 0.631699 12.0983 0.747425 10.4878 2.22776C8.73259 3.84312 8.90136 5.77672 8.97369 6.24927V8.60239H6.7363C6.2541 8.60239 5.86352 8.99296 5.86352 9.47516V13.3617C5.86352 13.8438 6.2541 14.2344 6.7363 14.2344H8.84349V24.4377C8.84349 24.9199 9.23407 25.3105 9.71627 25.3105H14.1235C14.6057 25.3105 14.9963 24.9199 14.9963 24.4377V14.2923H17.4893C17.9329 14.2923 18.309 13.9596 18.3572 13.516L18.8105 9.57642C18.8394 9.3305 18.7623 9.07976 18.5935 8.89652C18.4295 8.70847 18.1884 8.60239 17.9425 8.60239H14.9915V6.62539C15.0011 6.22034 15.112 5.99853 15.7003 5.99853ZM14.5093 9.58606H17.8268L17.3976 13.3038H14.5093C14.2393 13.3038 14.0175 13.5256 14.0175 13.7956V24.3316H9.83199V13.7474C9.83199 13.4774 9.61018 13.2556 9.34015 13.2556H6.8472V9.58606H9.46552C9.73555 9.58606 9.95736 9.36425 9.95736 9.09423V6.20588C9.95736 6.17694 9.95254 6.14801 9.95254 6.1239C9.8995 5.82494 9.71627 4.27227 11.1532 2.95106C12.4985 1.71182 14.2103 1.61538 14.707 1.61538C14.7745 1.61538 14.8179 1.61538 14.8227 1.61538C14.8324 1.61538 14.8372 1.61538 14.8468 1.61538H17.8364V5.01003H15.6955C14.6395 5.01003 14.0126 5.61278 14.0126 6.62539V9.09423C14.0175 9.36908 14.2344 9.58606 14.5093 9.58606Z" fill="#FF9033"/>
<path d="M14.1235 25.4069H9.71627C9.18103 25.4069 8.74705 24.973 8.74705 24.4377V14.3309H6.7363C6.20106 14.3309 5.76708 13.8969 5.76708 13.3617V9.47519C5.76708 8.93995 6.20106 8.50598 6.7363 8.50598H8.87725V6.25895C8.79045 5.6996 8.66508 3.78046 10.4203 2.16028C12.0549 0.655831 14.1139 0.540104 14.707 0.540104C14.7793 0.540104 14.8324 0.540104 14.8661 0.544926H17.9522C18.4874 0.544926 18.9214 0.978902 18.9214 1.51414V5.13061C18.9214 5.66585 18.4874 6.09982 17.9522 6.09982H15.7003C15.1844 6.09982 15.0976 6.25895 15.0879 6.63024V8.5108H17.9425C18.2222 8.5108 18.4826 8.63135 18.6658 8.83869C18.8491 9.04122 18.9407 9.31607 18.9069 9.59092L18.4537 13.5305C18.4006 14.0223 17.9859 14.3936 17.4893 14.3936H15.0928V24.4425C15.0928 24.973 14.6588 25.4069 14.1235 25.4069ZM6.7363 8.69886C6.30714 8.69886 5.95996 9.04604 5.95996 9.47519V13.3617C5.95996 13.7908 6.30714 14.138 6.7363 14.138H8.93993V24.4377C8.93993 24.8669 9.28711 25.2141 9.71627 25.2141H14.1235C14.5527 25.2141 14.8999 24.8669 14.8999 24.4377V14.1959H17.4893C17.8847 14.1959 18.2174 13.8969 18.2608 13.5063L18.714 9.56681C18.7382 9.345 18.6706 9.12319 18.5212 8.96406C18.3765 8.7953 18.1643 8.69886 17.9425 8.69886H14.895V6.62541C14.9047 6.17697 15.0445 5.90212 15.7003 5.90212H17.9522C18.3813 5.90212 18.7285 5.55494 18.7285 5.12579V1.50932C18.7285 1.08016 18.3813 0.732982 17.9522 0.732982H14.8517H14.842C14.8227 0.72816 14.7649 0.72816 14.7022 0.72816C14.1284 0.72816 12.1321 0.839065 10.5505 2.30012C8.85314 3.86243 8.98333 5.70924 9.0653 6.23484V6.2493V8.69886H6.7363V8.69886ZM14.1139 24.4281H9.73555V13.7474C9.73555 13.5305 9.55714 13.352 9.34015 13.352H6.75076V9.48966H9.46552C9.68251 9.48966 9.86093 9.31125 9.86093 9.09426V6.2059C9.86093 6.19144 9.86093 6.1818 9.86093 6.16733C9.86093 6.15286 9.86092 6.14322 9.8561 6.12875C9.79824 5.80568 9.61983 4.22408 11.0857 2.87393C12.4551 1.61058 14.2007 1.51414 14.707 1.51414H17.9329V5.10168H15.6955C14.6877 5.10168 14.1091 5.6562 14.1091 6.62059V9.08944C14.1139 9.31125 14.2875 9.48484 14.5093 9.48484H17.9329L17.4796 13.3954H14.5045C14.2875 13.3954 14.1091 13.5739 14.1091 13.7908V24.4281H14.1139ZM9.92843 24.2352H13.921V13.7957C13.921 13.4726 14.1862 13.2074 14.5093 13.2074H17.3109L17.7159 9.68254H14.5045C14.1766 9.68254 13.9162 9.42697 13.9114 9.09426V6.62541C13.9114 5.55494 14.5768 4.91362 15.6907 4.91362H17.7352V1.71184H14.707C14.22 1.71184 12.5371 1.80828 11.2207 3.02341C9.81271 4.3157 10.0008 5.82015 10.049 6.10947V6.12393C10.049 6.13358 10.049 6.14322 10.049 6.15286C10.049 6.17215 10.0538 6.18662 10.0538 6.2059V9.09426C10.0538 9.41733 9.7886 9.68254 9.46552 9.68254H6.94364V13.1592H9.34015C9.66322 13.1592 9.92843 13.4244 9.92843 13.7474V24.2352V24.2352Z" fill="#FF9033"/>
</svg>
