<svg width="50" height="36" viewBox="0 0 50 36" fill="none" xmlns="http://www.w3.org/2000/svg">
<g clip-path="url(#clip0_1_103)">
<path d="M42.3251 17.8205L36.3009 23.8448C36.2524 23.7769 36.1942 23.7187 36.136 23.6605L30.9848 18.5093C30.7035 18.228 30.2378 18.228 29.9565 18.5093C29.6752 18.7906 29.6752 19.2563 29.9565 19.5376L35.1077 24.6888C35.5539 25.135 35.5539 25.8529 35.1077 26.2991C34.6614 26.7454 33.9436 26.7454 33.4973 26.2991L30.6356 23.4374C30.3542 23.156 29.8886 23.156 29.6073 23.4374C29.3259 23.7187 29.3259 24.1843 29.6073 24.4657L32.469 27.3274C32.6824 27.5408 32.7989 27.8222 32.7989 28.1326C32.7989 28.4333 32.6824 28.7243 32.469 28.9378C32.2556 29.1512 31.9743 29.2676 31.6638 29.2676C31.3631 29.2676 31.0721 29.1512 30.8587 28.9378L27.9969 26.076C27.7156 25.7947 27.2499 25.7947 26.9686 26.076C26.6873 26.3573 26.6873 26.823 26.9686 27.1043L29.8304 29.9661C30.2766 30.4123 30.2766 31.1302 29.8304 31.5764C29.617 31.7898 29.3259 31.9062 29.0252 31.9062C28.7245 31.9062 28.4335 31.7898 28.22 31.5764L25.3583 28.7146C25.0769 28.4333 24.6113 28.4333 24.33 28.7146C24.0487 28.996 24.0487 29.4616 24.33 29.7429L27.1917 32.6047C27.638 33.0509 27.638 33.7688 27.1917 34.215C26.9783 34.4285 26.697 34.5449 26.3866 34.5449C26.0858 34.5449 25.7948 34.4285 25.5814 34.215L23.7285 32.3622C24.3203 31.3824 24.1942 30.0825 23.3405 29.2288L23.292 29.1803C22.7293 28.6176 21.963 28.3751 21.2257 28.443C21.1869 27.8222 20.925 27.2498 20.4787 26.8036C20.1392 26.464 19.7221 26.2409 19.2855 26.1245C19.4019 25.8335 19.4601 25.523 19.4601 25.2029C19.4601 24.5142 19.1982 23.8739 18.7132 23.3889C18.2281 22.9038 17.5879 22.6419 16.8991 22.6419C16.5111 22.6419 16.1327 22.7292 15.7932 22.8941C15.6768 22.4867 15.4634 22.0986 15.1432 21.7785C14.144 20.7793 12.5143 20.7793 11.5151 21.7785L11.2144 22.0792L10.9913 21.8561C10.642 21.5069 10.448 21.0315 10.448 20.5368V18.6354C10.448 18.4414 10.3704 18.2571 10.2346 18.1213L7.1206 15.0073L7.99368 14.1342C8.27501 13.8529 8.27501 13.3872 7.99368 13.1059C7.71235 12.8246 7.24671 12.8246 6.96539 13.1059L5.79158 14.2797C5.56846 14.5028 5.20952 14.5028 4.9864 14.2797L1.23216 10.5255C0.950834 10.2442 0.485191 10.2442 0.203866 10.5255C-0.0774602 10.8068 -0.0774602 11.2724 0.203866 11.5538L3.95811 15.308C4.35585 15.7058 4.86999 15.8998 5.39384 15.8998C5.55876 15.8998 5.72367 15.8804 5.88859 15.8416L8.99287 18.9458V20.5465C8.99287 21.439 9.3421 22.2733 9.96296 22.8941L10.1861 23.1172L9.94356 23.3598C9.45851 23.8448 9.19659 24.4851 9.19659 25.1738C9.19659 25.8626 9.45851 26.5028 9.94356 26.9879C10.448 27.4826 11.098 27.7349 11.7576 27.7349C11.7673 27.7349 11.777 27.7349 11.7867 27.7349C11.7867 27.7446 11.7867 27.7543 11.7867 27.764C11.7867 28.4527 12.0487 29.093 12.5337 29.578C13.0187 30.0631 13.659 30.325 14.3478 30.325C14.3575 30.325 14.3672 30.325 14.3769 30.325C14.3672 30.9944 14.6194 31.6637 15.1238 32.1682C15.6283 32.6629 16.2782 32.9151 16.9379 32.9151C16.9476 32.9151 16.9573 32.9151 16.967 32.9151C16.9573 33.5845 17.2095 34.2538 17.714 34.7583L17.7625 34.8068C18.2475 35.2918 18.8878 35.5538 19.5765 35.5538C20.2653 35.5538 20.9056 35.2918 21.3906 34.8068L22.7584 33.439L24.5628 35.2433C25.0478 35.7381 25.7075 36 26.3963 36C27.085 36 27.7447 35.7284 28.2297 35.2433C28.7439 34.7292 28.9961 34.0404 28.9864 33.3614C29.0058 33.3614 29.0155 33.3614 29.0349 33.3614C29.7237 33.3614 30.3833 33.0897 30.8684 32.6047C31.3825 32.0906 31.6347 31.4018 31.625 30.7227C31.6444 30.7227 31.6541 30.7227 31.6736 30.7227C32.3332 30.7227 33.0026 30.4705 33.507 29.9661C34.0018 29.481 34.2637 28.8214 34.2637 28.1326C34.2637 28.1132 34.2637 28.1035 34.2637 28.0841C34.2831 28.0841 34.2928 28.0841 34.3122 28.0841C34.9719 28.0841 35.6412 27.8319 36.1457 27.3274C36.6986 26.7745 36.9411 26.0372 36.9023 25.3193L43.3728 18.8488C43.6541 18.5675 43.6541 18.1019 43.3728 17.8205C43.0721 17.5392 42.6065 17.5392 42.3251 17.8205ZM10.9719 25.9596C10.7584 25.7462 10.6517 25.4745 10.6517 25.1835C10.6517 24.8925 10.7681 24.6112 10.9719 24.3977L12.5434 22.8262C12.7568 22.6128 13.0381 22.5061 13.3292 22.5061C13.6105 22.5061 13.8918 22.6128 14.1052 22.8262C14.5321 23.253 14.5321 23.9612 14.1052 24.388L12.5337 25.9596C12.1069 26.3864 11.4084 26.3864 10.9719 25.9596ZM14.3478 28.8699C14.0567 28.8699 13.7754 28.7534 13.562 28.5497C13.3486 28.3363 13.2419 28.0647 13.2419 27.7737C13.2419 27.4826 13.3583 27.2013 13.562 26.9879L15.1335 25.4163L16.1133 24.4366C16.3267 24.2231 16.5984 24.1164 16.8894 24.1164C17.1804 24.1164 17.4617 24.2328 17.6655 24.4366C17.8789 24.65 17.9856 24.9216 17.9856 25.2223C17.9856 25.5231 17.8692 25.7947 17.6655 26.0081L15.1335 28.5497C14.9201 28.7534 14.6388 28.8699 14.3478 28.8699ZM16.1618 31.1399C15.735 30.713 15.735 30.0049 16.1618 29.578L17.8983 27.8416C18.1117 27.6281 18.393 27.5214 18.6841 27.5214C18.9654 27.5214 19.2467 27.6281 19.4601 27.8416C19.6736 28.055 19.7803 28.3266 19.7803 28.6273C19.7803 28.9184 19.6638 29.1997 19.4601 29.4034L17.7237 31.1399C17.2871 31.5764 16.5887 31.5764 16.1618 31.1399ZM20.3623 33.7785C20.1489 33.9919 19.8773 34.0986 19.5862 34.0986C19.2952 34.0986 19.0139 33.9822 18.8102 33.7785L18.7617 33.73C18.3348 33.3032 18.3348 32.595 18.7617 32.1682L20.4981 30.4317L20.7115 30.2086C20.925 29.9952 21.2063 29.8885 21.4973 29.8885C21.7786 29.8885 22.06 29.9952 22.2734 30.2086L22.3219 30.2571C22.7487 30.6839 22.7487 31.3921 22.3219 31.8189L20.3623 33.7785Z" fill="#FF841D"/>
<path d="M49.4554 13.6104C49.174 13.329 48.7084 13.329 48.4271 13.6104L45.6914 16.3363C45.6526 16.3751 45.5944 16.3751 45.5556 16.3363L35.8935 7.11076C35.8741 7.09136 35.8644 7.07196 35.8644 7.04285C35.8644 7.01375 35.8741 6.99435 35.8935 6.97495L41.6268 1.24172C41.9081 0.960397 41.9081 0.494754 41.6268 0.213428C41.3454 -0.0678977 40.8798 -0.0678977 40.5985 0.213428L34.8652 5.94665C34.5645 6.24738 34.4093 6.64512 34.4093 7.06226C34.4093 7.40179 34.5257 7.72192 34.7294 7.98384L32.1102 10.5546L29.6365 9.17705C29.3163 8.99273 28.9477 8.90542 28.5791 8.90542H21.5653L21.0318 8.37188C20.537 7.87713 19.955 7.4988 19.2953 7.24657L17.3551 6.5093L16.4529 5.60712C16.9186 4.83105 16.8216 3.80276 16.1522 3.1334L13.2226 0.213428C12.9412 -0.0678977 12.4756 -0.0678977 12.1943 0.213428C11.9129 0.494754 11.9129 0.960397 12.1943 1.24172L15.1142 4.17139C15.3373 4.39451 15.3373 4.75344 15.1142 4.97656L6.83937 13.2514C6.55804 13.5328 6.55804 13.9984 6.83937 14.2797C6.98488 14.4252 7.1692 14.4931 7.35351 14.4931C7.53783 14.4931 7.72215 14.4252 7.86766 14.2797L15.4635 6.68392L16.4238 7.64431C16.4918 7.71222 16.5791 7.77042 16.6761 7.80922L18.7618 8.6047C19.208 8.77931 19.6154 9.03154 19.955 9.37107C19.9065 9.40987 19.8677 9.44867 19.8289 9.48748L17.0544 12.2619C16.5015 12.8149 16.2007 13.5425 16.2007 14.3185C16.2007 15.0946 16.5015 15.8319 17.0544 16.3751C17.6268 16.9475 18.364 17.2288 19.111 17.2288C19.761 17.2288 20.4206 17.0057 20.9639 16.5594L23.0593 14.8327H25.242L27.7351 17.3258C27.8806 17.4713 28.0649 17.5392 28.2492 17.5392C28.4335 17.5392 28.6179 17.4713 28.7634 17.3258C29.0447 17.0445 29.0447 16.5788 28.7634 16.2975L26.959 14.4931C27.0269 14.3767 27.0754 14.2506 27.0754 14.1051C27.0754 13.6977 26.7456 13.3775 26.3479 13.3775H22.7876C22.6227 13.3775 22.4578 13.4357 22.322 13.5425L20.0229 15.4341C19.4408 15.9095 18.6065 15.8707 18.073 15.3371C17.8014 15.0655 17.6462 14.6969 17.6462 14.3088C17.6462 13.9208 17.8014 13.5522 18.073 13.2805L20.8475 10.5061C20.9542 10.3994 21.09 10.3412 21.2355 10.3412H28.5597C28.6858 10.3412 28.8022 10.3703 28.9089 10.4285L31.6445 11.9515C32.052 12.1746 32.5661 12.1067 32.896 11.7866L35.748 8.98303L43.6057 16.4915L42.4901 17.6653C42.2088 17.9467 42.2088 18.4123 42.4901 18.6936C42.6356 18.8391 42.82 18.907 43.0043 18.907C43.1886 18.907 43.3729 18.8391 43.5184 18.6936L44.6922 17.5198C44.9639 17.7235 45.2937 17.8205 45.6235 17.8205C46.0213 17.8205 46.419 17.6653 46.7294 17.3646L49.4651 14.629C49.7367 14.3573 49.7367 13.8917 49.4554 13.6104Z" fill="#FF841D"/>
</g>
<defs>
<clipPath id="clip0_1_103">
<rect width="49.6686" height="36" fill="white"/>
</clipPath>
</defs>
</svg>
