<svg width="43" height="42" viewBox="0 0 43 42" fill="none" xmlns="http://www.w3.org/2000/svg">
<g clip-path="url(#clip0_1_96)">
<path d="M23.5315 26.2224C23.3025 26.0097 23.0899 25.8134 22.9345 25.6335C22.6645 25.3554 22.2801 25.1918 21.863 25.1918C21.454 25.1918 21.0614 25.3554 20.7915 25.6335L16.4157 30.0175C16.0967 30.3447 15.6632 30.5246 15.2215 30.5328C16.0721 29.764 16.4811 29.0524 16.4811 28.3571C16.4811 27.6456 16.0558 26.9258 15.1806 26.1733C14.6653 25.7071 14.1173 25.4944 13.5611 25.5272C12.8741 25.5762 12.1543 26.0097 11.4346 26.8195C11.41 26.3287 11.59 25.8461 11.9417 25.4944L16.3257 21.094C16.9064 20.5133 16.9064 19.5564 16.3257 18.9675C16.1376 18.8039 15.9413 18.583 15.7204 18.354C15.107 17.6915 14.4118 16.939 13.6347 16.9145C13.2749 16.9063 12.9232 17.0535 12.596 17.3725C11.9826 18.0269 11.2873 18.6975 10.6085 19.3355C7.15685 22.6399 3.59074 26.0506 7.17321 31.1053L4.13056 34.148C3.95062 34.3279 3.88519 34.5488 3.94244 34.7778C4.00787 35.0313 4.22871 35.244 4.48226 35.3176C4.71128 35.3749 4.9403 35.3094 5.11206 35.1295L13.0786 27.163C13.2176 27.0158 13.4221 26.934 13.6429 26.934C13.8556 26.934 14.0601 27.0158 14.2073 27.1712L14.2482 27.2121C14.5999 27.5392 15.0825 27.9809 15.0906 28.4226C15.0906 28.6107 15.017 28.7743 14.8534 28.946L3.41079 40.3642C3.24721 40.5277 3.07545 40.6095 2.88733 40.6013C2.44565 40.5932 2.00398 40.1106 1.67681 39.7589L1.63592 39.7098C1.47233 39.5544 1.39872 39.3908 1.39872 39.2027C1.4069 38.7038 2.01216 38.1558 2.49473 37.7223C2.72374 37.5178 2.92004 37.3379 3.04273 37.1825C3.22267 37.0107 3.28811 36.7817 3.23085 36.5527C3.16542 36.2991 2.94458 36.0783 2.69103 36.0128C2.46201 35.9556 2.233 36.021 2.06123 36.201C1.97126 36.2827 1.88129 36.3727 1.79132 36.4627C0.597163 37.5914 -0.875087 38.9901 0.654417 40.6995L0.687133 40.7322C1.24332 41.3129 1.93037 42.0409 2.83825 41.9836C2.87915 41.9918 2.92004 42 2.96094 42C3.93426 42 6.33893 39.5462 8.92355 36.8144C9.8069 35.882 10.5676 35.0722 10.8865 34.835C13.1195 36.4382 15.246 36.7244 17.3726 35.7266C19.262 34.8432 20.9306 33.0765 22.55 31.3589C23.1962 30.68 23.8587 29.9684 24.5212 29.3468C24.8238 29.0278 24.9792 28.6843 24.9711 28.3326C24.9465 27.5474 24.194 26.844 23.5315 26.2224ZM23.5397 28.3735C22.8281 29.0033 22.1247 29.7558 21.3886 30.5573C20.039 32.0214 18.6404 33.5345 17.07 34.3361C15.336 35.2195 13.6347 35.0641 11.8844 33.8535L14.0437 31.6942C15.1888 32.1523 16.5302 31.8742 17.4053 30.999L21.773 26.6068C21.8466 26.5495 21.8793 26.5495 21.953 26.6068L23.5397 28.2099C23.5806 28.2508 23.5806 28.3244 23.5397 28.3735ZM8.65364 23.2861L13.5693 18.3377C13.6511 18.2804 13.6675 18.2804 13.7493 18.3377L15.336 19.9408C15.3851 19.9899 15.3851 20.0635 15.336 20.1125L10.9602 24.5129C10.0686 25.4208 9.8069 26.7949 10.3058 27.9645L8.16289 30.0993C6.63338 28.03 6.83786 25.1182 8.65364 23.2861Z" fill="#FF841D"/>
<path d="M34.4345 11.2954C38.8022 7.10769 42.3846 3.57429 42.0002 2.80545C42.0411 1.88939 41.305 1.19416 40.7161 0.637975C40.3317 0.229017 39.7673 0 39.1702 0C38.5731 0 38.017 0.229017 37.6244 0.637975L31.1056 7.15677C26.0508 3.57429 22.6401 7.14041 19.3439 10.5838C18.6978 11.2545 18.0352 11.9579 17.3727 12.5714C17.0619 12.8985 16.9065 13.2421 16.9229 13.6101C16.9474 14.3871 17.6999 15.0906 18.3706 15.704C18.5996 15.9167 18.8204 16.1211 18.984 16.3092C19.5729 16.89 20.5217 16.89 21.1106 16.3092L25.511 11.9252C25.8627 11.5817 26.3453 11.4018 26.836 11.4181C26.0263 12.1379 25.5928 12.8576 25.5437 13.5447C25.5028 14.1009 25.7237 14.6489 26.1899 15.1642C26.9505 16.0393 27.6621 16.4647 28.3737 16.4647C29.0689 16.4647 29.7805 16.0557 30.5494 15.2051C30.5412 15.6549 30.3613 16.0802 30.0341 16.3992L25.6419 20.7751C25.3311 21.1022 25.1757 21.4458 25.1838 21.8138C25.2084 22.5908 25.9609 23.2943 26.6316 23.9077C26.8606 24.1203 27.0814 24.3248 27.245 24.5048C27.5394 24.791 27.9239 24.9383 28.3083 24.9383C28.6927 24.9383 29.0771 24.791 29.3716 24.5048L34.3282 19.5727C35.9804 17.9369 36.6429 15.5241 36.054 13.2748C35.9558 12.9067 35.5796 12.6859 35.2033 12.7759C34.8353 12.874 34.6144 13.2502 34.7126 13.6265C35.7595 16.5873 32.7578 19.3519 30.3449 21.5848C29.5924 22.28 28.889 22.9344 28.3819 23.5151C28.3328 23.5642 28.2592 23.5642 28.2183 23.5151L26.6152 21.9283C26.5579 21.8547 26.5579 21.822 26.6152 21.7484L31.0074 17.3807C31.8826 16.5055 32.1607 15.156 31.6945 14.0109C31.9235 13.7083 33.0358 12.6368 34.4345 11.2954ZM40.6261 2.87089C40.6261 3.05901 40.5525 3.22259 40.3889 3.38617L28.9463 14.8288C28.799 14.976 28.5946 15.066 28.3819 15.066H28.3737C28.0466 15.0987 27.7112 14.747 27.4495 14.4608C27.3513 14.3544 27.2532 14.2563 27.1714 14.1827C27.0242 14.0436 26.9424 13.8391 26.9424 13.6183C26.9424 13.4056 27.0242 13.2012 27.1714 13.0539L38.614 1.6113C38.7531 1.46407 38.9576 1.38228 39.1784 1.38228C39.3911 1.38228 39.5955 1.46407 39.7428 1.61947L39.7837 1.66037C40.1354 1.97936 40.6179 2.42103 40.6261 2.87089ZM30.1241 8.13827L27.9811 10.2812C26.8115 9.78228 25.4292 10.044 24.5295 10.9355L20.1291 15.3196C20.08 15.3686 20.0064 15.3686 19.9574 15.3196L18.3542 13.7328C18.297 13.6592 18.297 13.6347 18.3542 13.5529L23.3026 8.6372C25.1348 6.81324 28.0547 6.60876 30.1241 8.13827Z" fill="#FF841D"/>
<path d="M7.86859 15.0333L9.65165 15.7122C9.73344 15.7449 9.81523 15.7613 9.89702 15.7613C9.99517 15.7613 10.0933 15.7367 10.1833 15.704C10.3551 15.6304 10.4859 15.4913 10.5514 15.3196C10.6168 15.1478 10.6086 14.9597 10.535 14.7879C10.4614 14.6162 10.3223 14.4935 10.1506 14.4281L8.36752 13.7492C8.13032 13.6592 7.90131 13.6838 7.71318 13.8392C7.50871 14.0027 7.40238 14.289 7.44327 14.5507C7.48417 14.7716 7.63139 14.9433 7.86859 15.0333Z" fill="#FF841D"/>
<path d="M11.9088 12.1461C12.0397 12.2851 12.2032 12.3587 12.375 12.3587C12.4241 12.3587 12.4813 12.3506 12.5304 12.3424C12.784 12.2769 13.0048 12.0643 13.0784 11.8107C13.1438 11.5817 13.0784 11.3527 12.8985 11.1809C12.8657 11.14 12.8003 11.0746 12.6858 10.9519L11.5162 9.74958C11.2463 9.47966 10.8128 9.47149 10.5347 9.7414C10.2648 10.0113 10.2566 10.4448 10.5265 10.7229L11.9088 12.1461Z" fill="#FF841D"/>
<path d="M15.2544 9.74955C15.3198 9.99493 15.4752 10.1667 15.7043 10.2321C15.7697 10.2485 15.827 10.2567 15.8924 10.2567C16.0887 10.2567 16.2932 10.1749 16.4322 10.0358C16.604 9.86406 16.653 9.64323 16.5876 9.39785L16.0887 7.51664C16.0396 7.3367 15.9251 7.18948 15.7697 7.09133C15.6061 7.00136 15.4262 6.96864 15.2462 7.01771C15.0663 7.06679 14.9191 7.1813 14.8209 7.3367C14.7309 7.50028 14.6982 7.68023 14.7473 7.86017L15.2544 9.74955Z" fill="#FF841D"/>
</g>
<defs>
<clipPath id="clip0_1_96">
<rect width="42.0327" height="42" fill="white"/>
</clipPath>
</defs>
</svg>
