<svg width="40" height="40" viewBox="0 0 40 40" fill="none" xmlns="http://www.w3.org/2000/svg">
<g clip-path="url(#clip0_1_107)">
<path d="M22.7549 15.4708C22.9027 15.0817 22.856 14.6459 22.6148 14.3035C22.3969 13.9844 22.0778 13.7899 21.7043 13.7587C21.3152 13.7198 20.9105 13.8677 20.5992 14.1634C19.642 15.0739 18.677 15.9922 17.7432 16.8716C17.1751 17.4085 16.607 17.9455 16.0389 18.4825C15.7276 18.7782 15.572 19.1829 15.6187 19.5875C15.6654 19.9922 15.8911 20.3424 16.2568 20.5603C16.8716 20.9261 17.4942 21.284 18.0934 21.6264L18.3813 21.7899C18.2802 22.0311 18.179 22.2646 18.0856 22.4903C17.7977 23.1751 17.5175 23.821 17.2451 24.5292C17.0039 25.1517 17.2763 25.8366 17.8833 26.1245C18.07 26.2179 18.2568 26.2568 18.4436 26.2568C18.7782 26.2568 19.0973 26.1167 19.393 25.8366C20.2724 25.0039 21.1751 24.1479 22.0467 23.3229C22.6848 22.7159 23.323 22.1167 23.9611 21.5097C24.2724 21.214 24.428 20.8093 24.3813 20.3969C24.3346 19.9844 24.0856 19.6264 23.7043 19.4008C23.214 19.1206 22.716 18.8327 22.2257 18.5447L21.6187 18.1945L21.642 18.1323C22.0156 17.2762 22.4047 16.3735 22.7549 15.4708ZM19.4864 22.5681C19.5876 22.3268 19.6887 22.0856 19.7977 21.8366C19.93 21.5331 19.8755 21.1206 19.4708 20.8871C19.2296 20.7471 18.9805 20.607 18.7393 20.4669C18.1479 20.1323 17.5409 19.7821 16.9494 19.4319C17.4008 19.0039 17.9455 18.4825 18.5058 17.9533C19.6887 16.8327 21.0039 15.5797 21.4397 15.1829C21.1206 15.9844 20.7782 16.7938 20.4514 17.572C20.3658 17.7665 20.2879 17.9611 20.2023 18.1556C20.0467 18.5214 20.179 18.9027 20.5292 19.105C20.8716 19.3074 21.214 19.5019 21.5564 19.7043C22.0545 19.9922 22.5447 20.2801 23.0428 20.5603C22.7704 20.8171 22.4047 21.1673 21.9844 21.5642C20.7938 22.7004 19.0817 24.3346 18.5525 24.8093C18.856 24.0545 19.1595 23.3307 19.4864 22.5681Z" fill="#FF841D"/>
<path d="M10.1479 9.68093C10.6537 10.07 11.2918 10.2101 11.8988 10.0545L20.5136 7.96887C20.6693 8.18677 20.8638 8.37354 21.0817 8.51361L25.4708 11.5019C25.5798 11.5798 25.7121 11.6187 25.8444 11.6187C25.8833 11.6187 25.93 11.6187 25.9689 11.6109C26.1401 11.5798 26.2957 11.4786 26.3969 11.3307C26.498 11.1829 26.5292 11.0117 26.498 10.8327C26.4669 10.6615 26.3658 10.5058 26.2179 10.4124L21.8132 7.41634C21.642 7.29961 21.5486 7.18287 21.5019 7.02723C21.4786 6.94941 21.4475 6.74708 21.5875 6.52918C21.5875 6.52918 21.5953 6.5214 21.6031 6.51361C21.8366 6.22568 22.1868 6.16342 22.6848 6.33463L28.8016 8.16342C28.9728 8.21789 29.1517 8.19455 29.3074 8.10894C29.463 8.02334 29.5798 7.88326 29.6265 7.71984C29.6809 7.54863 29.6576 7.36964 29.572 7.214C29.4864 7.05836 29.3463 6.94163 29.1829 6.89494L23.1051 5.07392C22.2023 4.6926 21.1595 4.94163 20.5759 5.68093C20.3424 5.96887 20.2023 6.32684 20.1712 6.6926L11.5798 8.77042C11.3619 8.8249 11.1284 8.77821 10.9494 8.63813C10.7704 8.49805 10.6615 8.28793 10.6615 8.06225C10.6615 7.7821 10.8171 7.53307 11.0661 7.40077L22.7549 1.50194C23.1907 1.28404 23.6965 1.2607 24.1479 1.44747L34.0156 5.50972C34.3113 5.62645 34.607 5.72762 34.9183 5.78988C35.5409 5.92217 36.0389 5.9533 36.4591 5.89105L39.4475 5.37743C39.6187 5.3463 39.7743 5.25291 39.8755 5.10505C39.9766 4.95719 40.0156 4.78599 39.9844 4.61478C39.9222 4.2568 39.5798 4.01556 39.2218 4.07782L36.2646 4.58365C35.9144 4.607 35.5642 4.57587 35.2218 4.50583C34.965 4.45136 34.7393 4.38132 34.5136 4.28793L24.6459 0.225676C23.8444 -0.108954 22.9338 -0.0700437 22.1556 0.319061L10.4669 6.21789C9.76653 6.56809 9.33852 7.27626 9.33852 8.05447C9.33852 8.6926 9.63424 9.28404 10.1479 9.68093Z" fill="#FF841D"/>
<path d="M15.0116 26.5992C14.9182 26.7471 14.8871 26.9261 14.926 27.0973C14.9649 27.2685 15.0661 27.4163 15.2139 27.5097C16.6381 28.4202 18.2956 28.9027 19.9999 28.9027C24.9104 28.9027 28.9026 24.9105 28.9026 20C28.9026 15.0895 24.9104 11.0973 19.9999 11.0973C15.0894 11.0973 11.0972 15.0895 11.0972 20C11.0972 22.1634 11.8832 24.2412 13.2995 25.8677C13.4163 26 13.5797 26.0778 13.7509 26.0934C13.9299 26.1012 14.1011 26.0467 14.2334 25.93C14.3657 25.8132 14.4435 25.6498 14.4591 25.4786C14.4668 25.2996 14.4124 25.1284 14.2956 24.9961C13.0816 23.6187 12.4202 21.8444 12.4202 20C12.4202 15.821 15.8209 12.4202 19.9999 12.4202C24.1789 12.4202 27.5797 15.821 27.5797 20C27.5797 24.179 24.1789 27.5798 19.9999 27.5798C18.5525 27.5798 17.1439 27.1673 15.9299 26.3969C15.6186 26.1946 15.2139 26.2879 15.0116 26.5992Z" fill="#FF841D"/>
<path d="M39.9846 13.9533C39.9145 13.5953 39.5643 13.3619 39.2064 13.4319L35.3387 14.179C33.5566 14.5214 31.6811 14.1323 30.1791 13.1129L27.8912 11.5564C27.5877 11.3541 27.1752 11.4319 26.9729 11.7276C26.7706 12.0311 26.8484 12.4436 27.1441 12.6459L29.432 14.2023C30.7939 15.1284 32.4204 15.6187 34.0546 15.6187C34.5682 15.6187 35.0741 15.572 35.5799 15.4708L39.4476 14.7238C39.8212 14.6615 40.0546 14.3113 39.9846 13.9533Z" fill="#FF841D"/>
<path d="M29.8599 30.3191C29.3541 29.93 28.7159 29.7899 28.1011 29.9455L19.4864 32.0311C19.3307 31.8132 19.1362 31.6265 18.9183 31.4864L10.5603 25.7977C8.7704 24.5837 6.52916 24.1167 4.40464 24.5292L0.536941 25.2763C0.178964 25.3463 -0.0544987 25.6965 0.0155402 26.0545C0.0855791 26.4124 0.427992 26.6459 0.79375 26.5759L4.66145 25.8288C6.44356 25.4864 8.31904 25.8755 9.82099 26.8949L10.2646 27.1984C18.1945 32.5992 18.2101 32.607 18.2101 32.607C18.3657 32.7004 18.4825 32.856 18.5136 33.0195C18.5447 33.1673 18.5136 33.3152 18.4202 33.4553C18.1245 33.8677 17.6031 33.7665 17.3074 33.6654L11.1906 31.8366C11.0194 31.7821 10.8404 31.8055 10.6848 31.8911C10.5292 31.9767 10.4124 32.1167 10.3657 32.2802C10.2646 32.6304 10.4591 32.9961 10.8093 33.1051C11.642 33.3541 12.4747 33.6031 13.3074 33.8521L16.8871 34.9261C17.7821 35.3074 18.8171 35.0584 19.4163 34.3191C19.6498 34.0311 19.7899 33.6809 19.821 33.3074L28.4124 31.2296C28.6303 31.1751 28.8638 31.2218 29.0428 31.3619C29.2218 31.5019 29.3307 31.7121 29.3307 31.9455C29.3307 32.2257 29.1751 32.4747 28.926 32.607L17.2373 38.5058C16.8015 38.7237 16.2957 38.7471 15.8443 38.5603L5.98441 34.4903C5.7276 34.3813 5.45523 34.3113 5.19842 34.2413L5.08947 34.2101C4.5992 34.0778 4.00776 34.0389 3.54083 34.109L0.552505 34.6226C0.381299 34.6537 0.225657 34.7471 0.12449 34.8949C0.0233223 35.0428 -0.0155882 35.214 0.0155402 35.3852C0.077797 35.7432 0.420209 35.9844 0.778186 35.9222L3.73538 35.4164C4.10114 35.393 4.45912 35.4241 4.8171 35.502C5.04278 35.5486 5.26846 35.6187 5.48636 35.7121L15.3541 39.7743C15.7198 39.9222 16.1089 40 16.498 40C16.965 40 17.4241 39.8911 17.8443 39.6809L29.533 33.7821C30.2334 33.4319 30.6615 32.7237 30.6615 31.9455C30.6615 31.3074 30.3735 30.716 29.8599 30.3191Z" fill="#FF841D"/>
</g>
<defs>
<clipPath id="clip0_1_107">
<rect width="40" height="40" fill="white"/>
</clipPath>
</defs>
</svg>
