<svg width="44" height="44" viewBox="0 0 44 44" fill="none" xmlns="http://www.w3.org/2000/svg">
<path d="M43.1747 37.6128L38.6875 30.1349L39.0893 26.699H39.6607C40.6734 26.699 41.4972 25.8752 41.4972 24.8625V22.7587C41.4972 21.7462 40.6734 20.9224 39.6607 20.9224H37.1409V18.5132C37.1409 18.5068 37.1413 18.5001 37.1413 18.4933C37.1413 18.3419 37.0889 18.2026 37.0013 18.0925C37.0013 18.0922 37.001 18.0919 37.0006 18.0915L34.7753 15.2949V12.9457C34.7753 12.1709 34.1452 11.5405 33.3704 11.5405H30.7792C30.7628 11.5072 30.746 11.475 30.7292 11.4435C30.4099 10.8429 29.5301 10.0742 28.1135 9.15805C27.8201 8.96872 27.6448 8.64545 27.6448 8.29297V6.58496C27.9208 6.448 28.1111 6.16333 28.1111 5.83469V2.24847C28.1111 1.00876 27.1027 0 25.8626 0H23.4141C22.174 0 21.1656 1.00876 21.1656 2.24847V5.83469C21.1656 6.16333 21.3556 6.448 21.6319 6.58496V8.29297C21.6319 8.64545 21.4563 8.96872 21.1626 9.15839C20.9286 9.30945 20.6665 9.48502 20.3996 9.67468C20.4016 9.62466 20.4029 9.57465 20.4029 9.52429C20.4029 7.62897 18.8608 6.08679 16.9654 6.08679C15.0698 6.08679 13.5279 7.62897 13.5279 9.52429C13.5279 9.76666 13.5541 10.011 13.6055 10.2484C13.6827 10.6143 13.7549 10.9547 13.822 11.2719C13.0378 10.9943 12.1314 11.1195 11.4409 11.6825C10.932 12.0981 10.6151 12.6869 10.549 13.3408C10.4825 13.9947 10.6749 14.6352 11.0881 15.1411C11.1965 15.2754 11.3221 15.3999 11.4597 15.51L13.3785 17.0562C12.2983 18.0096 11.5994 19.3853 11.543 20.9224H8.46668L8.33241 20.67C8.35255 20.6596 8.37269 20.6488 8.39249 20.6384C10.4533 19.5421 12.1724 17.7417 11.4701 16.4214C10.7679 15.1012 8.31428 15.5201 6.25346 16.6165C6.23331 16.6269 6.21317 16.6376 6.19337 16.6487L5.32694 15.0199C5.34708 15.0095 5.36723 14.9988 5.38737 14.9884C6.41425 14.4422 7.30048 13.7594 7.88325 13.0655C8.84333 11.9232 8.65971 11.138 8.46467 10.7714C8.26963 10.4048 7.72111 9.81332 6.23701 9.97076C5.33634 10.0664 4.27454 10.4199 3.24799 10.9661C3.22785 10.9768 3.20771 10.9876 3.1879 10.9983L2.53834 9.77774C2.17612 9.09695 1.9925 8.36279 1.9925 7.59607C1.9925 5.86758 2.93916 4.2905 4.46354 3.4798C5.56159 2.89569 6.82179 2.77417 8.01115 3.13739C9.20051 3.50095 10.1774 4.30594 10.7615 5.40399L11.8716 7.49234C12.0388 7.80655 12.4289 7.92606 12.7434 7.75854C13.0576 7.59171 13.1771 7.20129 13.01 6.88708L11.8995 4.79874C10.36 1.90405 6.75263 0.802307 3.85795 2.3418C1.91227 3.37674 0.703438 5.38989 0.703438 7.59607C0.703438 8.56253 0.944466 9.52631 1.40034 10.383L7.00642 20.9224H4.38163C3.36884 20.9224 2.54505 21.7462 2.54505 22.7587V24.8625C2.54505 25.8752 3.36884 26.699 4.38163 26.699H4.95264L5.35481 30.1349L0.867592 37.6128C0.612129 38.0384 0.537605 38.5383 0.657784 39.02C0.778298 39.5014 1.07908 39.9076 1.50474 40.163C1.71992 40.2919 1.9539 40.3752 2.20063 40.4101C2.28858 40.4225 2.37586 40.4286 2.46281 40.4286C3.10935 40.4286 3.71561 40.0915 4.05534 39.5259L6.06211 36.1817L6.20679 37.4234C6.2454 37.7514 6.52369 37.9931 6.84629 37.9931C6.87113 37.9931 6.89664 37.9918 6.92182 37.9887C7.27531 37.9474 7.52842 37.6272 7.48713 37.2737L7.14841 34.3713L11.7524 26.699H32.2898L36.8939 34.3713L36.0848 41.2866C35.9902 42.0986 35.3023 42.7109 34.4846 42.7109H9.55735C8.7396 42.7109 8.05177 42.0986 7.9571 41.2859L7.7869 39.8327C7.74561 39.4792 7.42536 39.2261 7.07188 39.2677C6.71839 39.309 6.46528 39.6293 6.5069 39.9828L6.67677 41.4353C6.84696 42.8976 8.08567 44 9.55769 44H34.4846C35.9566 44 37.1953 42.8976 37.3652 41.4356L37.9798 36.181L39.9869 39.5255C40.52 40.4135 41.6631 40.6874 42.5375 40.163C43.4184 39.6343 43.7034 38.4936 43.1747 37.6128V37.6128ZM6.85871 17.7545C8.93464 16.6501 10.2365 16.8478 10.3321 17.0267C10.4271 17.2056 9.86317 18.396 7.78724 19.5001C7.76743 19.5108 7.74729 19.5216 7.72715 19.532L6.79862 17.7864C6.81876 17.7756 6.83857 17.7649 6.85871 17.7545ZM3.85325 12.1041C4.72504 11.6405 5.6435 11.33 6.3733 11.2528C7.01414 11.185 7.29612 11.3196 7.32667 11.3766C7.35688 11.4337 7.31123 11.7429 6.89664 12.2364C6.42432 12.7983 5.65391 13.3864 4.78178 13.85C4.76197 13.8608 4.74183 13.8712 4.72169 13.8819L3.7935 12.1363C3.8133 12.1256 3.83311 12.1148 3.85325 12.1041ZM37.6015 28.3251L36.6256 26.699H37.7915L37.6015 28.3251ZM24.533 20.9224V18.7179L26.5653 16.164H33.8199L35.1603 17.8488H32.2401C31.884 17.8488 31.5956 18.1375 31.5956 18.4933C31.5956 18.8492 31.884 19.1379 32.2401 19.1379H35.8519V20.9224H24.533ZM33.4866 12.9453V14.8749H26.8989V12.9453C26.8989 12.8816 26.951 12.8295 27.0147 12.8295H30.3395C30.3452 12.8295 30.3505 12.8299 30.3562 12.8299C30.3619 12.8299 30.3677 12.8295 30.3734 12.8295H33.3704C33.4345 12.8295 33.4866 12.8816 33.4866 12.9453ZM23.4141 1.28906H25.8626C26.3917 1.28906 26.8221 1.71942 26.8221 2.24847V5.38217H22.4547V2.24847C22.4547 1.71942 22.885 1.28906 23.4141 1.28906V1.28906ZM21.8619 10.2413C22.5248 9.81366 22.921 9.08521 22.921 8.29297V6.67157H26.3558V8.29297C26.3558 9.08521 26.7519 9.81366 27.4142 10.241C28.3055 10.8174 28.8372 11.2437 29.1534 11.5405H27.0147C26.24 11.5405 25.6099 12.1706 25.6099 12.9453V15.2945L23.3842 18.0915C23.2933 18.2057 23.2439 18.347 23.2439 18.4927V20.9224H22.3879C22.3312 19.3853 21.6326 18.0096 20.5526 17.0562C20.7692 16.8817 21.0233 16.6772 21.3305 16.4295L22.4701 15.5114C22.6061 15.4026 22.731 15.2787 22.8407 15.1441C23.2567 14.6349 23.449 13.9944 23.3825 13.3405C23.3161 12.6865 22.9992 12.0977 22.4893 11.6821C21.98 11.2669 21.3395 11.0749 20.6863 11.1413C20.6483 11.1454 20.6104 11.1501 20.5731 11.1554C20.9256 10.8745 21.3627 10.5639 21.8619 10.2413ZM19.6224 13.5781C19.7997 13.327 19.9612 12.5106 20.8165 12.4237C21.1277 12.3921 21.4325 12.4834 21.6749 12.6812C21.9176 12.8789 22.0686 13.1595 22.1002 13.4707C22.1408 13.8715 21.9757 14.2562 21.6631 14.5063L20.5218 15.4258C20.0585 15.7991 19.7168 16.0747 19.4412 16.2966C19.3243 16.2365 19.2048 16.1804 19.0833 16.1287L19.6224 13.5781ZM16.9654 7.37585C18.1501 7.37585 19.1139 8.33997 19.1139 9.52429C19.1139 9.67804 19.0978 9.83078 19.0652 9.98151L18.8148 11.1658C18.8134 11.1722 18.8117 11.1786 18.8107 11.185L17.8419 15.7689C17.5566 15.7225 17.2639 15.6984 16.9654 15.6984C16.6673 15.6984 16.3746 15.7225 16.0896 15.7689L16.0816 15.7313C15.8576 14.6705 15.6176 13.5331 14.866 9.97882C14.8334 9.82809 14.817 9.67535 14.817 9.52463C14.817 8.33997 15.7808 7.37585 16.9654 7.37585ZM12.0895 14.3291C11.6809 13.8289 11.7558 13.0894 12.256 12.6812C12.8243 12.2179 13.6941 12.3807 14.0415 13.0598L14.3101 13.5815C14.5521 14.7272 14.6891 15.3754 14.82 15.9971L14.8479 16.1284C14.7264 16.1801 14.6072 16.2361 14.49 16.2962C12.1429 14.3949 12.2221 14.4932 12.0895 14.3291ZM16.9654 16.9874C19.179 16.9874 20.9917 18.7347 21.0975 20.9224H12.8334C12.9391 18.7347 14.7519 16.9874 16.9654 16.9874ZM6.25044 26.699H7.41663L6.44077 28.3251L6.25044 26.699ZM2.9499 38.8622C2.83173 39.0593 2.6085 39.1657 2.38123 39.1335H2.3809C2.30604 39.1227 2.2342 39.0972 2.16807 39.0576C2.03748 38.9794 1.9455 38.8548 1.90858 38.7071C1.87165 38.5594 1.89448 38.4063 1.97269 38.2758L6.57002 30.6146C6.57069 30.6142 6.57102 30.6136 6.57136 30.6129L9.09577 26.4063C9.1045 26.3925 9.11323 26.3784 9.12095 26.364L10.5268 24.0212C10.605 23.8906 10.7296 23.7986 10.8773 23.7617C10.9233 23.75 10.9699 23.7443 11.0163 23.7443C11.1183 23.7443 11.2187 23.7721 11.3087 23.8258C11.5779 23.9876 11.6658 24.3381 11.504 24.6077L10.8451 25.7057C10.8377 25.7171 10.831 25.7285 10.8243 25.7403L2.9499 38.8622ZM12.5259 25.41L12.6095 25.271C12.8649 24.8453 12.9391 24.3455 12.8189 23.8638C12.6984 23.3824 12.3977 22.9762 11.972 22.7207C11.5463 22.4653 11.0465 22.3907 10.5648 22.5113C10.083 22.6318 9.67719 22.9326 9.42173 23.3582L8.19007 25.41H4.38163C4.07984 25.41 3.83411 25.1646 3.83411 24.8625V22.7587C3.83411 22.4569 4.07984 22.2115 4.38163 22.2115H39.6607C39.9624 22.2115 40.2082 22.4569 40.2082 22.7587V24.8625C40.2082 25.1646 39.9624 25.41 39.6607 25.41H35.8522L34.6209 23.3582C34.3654 22.9322 33.9592 22.6314 33.4775 22.5113C32.9958 22.3907 32.4963 22.4653 32.0703 22.7207C31.6446 22.9762 31.3438 23.3824 31.2237 23.8638C31.1032 24.3455 31.1777 24.8453 31.4331 25.271L31.5164 25.41H12.5259ZM41.661 39.1335C41.6486 39.1314 41.2844 39.1825 41.0924 38.8622C40.61 38.0586 32.9924 25.365 32.5382 24.608C32.3764 24.3384 32.4641 23.9876 32.7336 23.8262C33.0035 23.664 33.3533 23.7513 33.5154 24.0215C33.9911 24.8145 37.008 29.8415 37.4692 30.6102C37.4703 30.6119 37.4713 30.6136 37.4723 30.6152L42.0693 38.2761C42.2814 38.6289 42.0592 39.0771 41.661 39.1335V39.1335Z" fill="#FF841D"/>
<path d="M15.364 32.3269V30.1943C15.364 29.2453 14.5919 28.4728 13.6429 28.4728C12.6936 28.4728 11.9215 29.2453 11.9215 30.1943V32.3269C11.9215 33.2759 12.6936 34.0484 13.6429 34.0484C14.5919 34.0484 15.364 33.2759 15.364 32.3269ZM13.2105 32.3269V30.1943C13.2105 29.9559 13.4046 29.7619 13.6429 29.7619C13.8812 29.7619 14.0753 29.9559 14.0753 30.1943V32.3269C14.0753 32.5653 13.8812 32.7593 13.6429 32.7593C13.4046 32.7593 13.2105 32.5653 13.2105 32.3269Z" fill="#FF841D"/>
<path d="M19.5531 39.2943V37.1619C19.5531 36.2126 18.781 35.4405 17.832 35.4405C16.8827 35.4405 16.1106 36.2126 16.1106 37.1619V39.2943C16.1106 40.2436 16.8827 41.0157 17.832 41.0157C18.781 41.0157 19.5531 40.2436 19.5531 39.2943ZM17.3997 39.2943V37.1619C17.3997 36.9236 17.5934 36.7296 17.832 36.7296C18.0704 36.7296 18.2641 36.9236 18.2641 37.1619V39.2943C18.2641 39.5326 18.0704 39.7266 17.832 39.7266C17.5934 39.7266 17.3997 39.5326 17.3997 39.2943Z" fill="#FF841D"/>
<path d="M23.7422 32.3269V30.1943C23.7422 29.2453 22.9702 28.4728 22.0211 28.4728C21.0718 28.4728 20.2997 29.2453 20.2997 30.1943V32.3269C20.2997 33.2759 21.0718 34.0484 22.0211 34.0484C22.9702 34.0484 23.7422 33.2759 23.7422 32.3269ZM21.5888 32.3269V30.1943C21.5888 29.9559 21.7825 29.7619 22.0211 29.7619C22.2595 29.7619 22.4532 29.9559 22.4532 30.1943V32.3269C22.4532 32.5653 22.2595 32.7593 22.0211 32.7593C21.7825 32.7593 21.5888 32.5653 21.5888 32.3269Z" fill="#FF841D"/>
<path d="M27.9314 39.2943V37.1619C27.9314 36.2126 27.1593 35.4405 26.2099 35.4405C25.2609 35.4405 24.4885 36.2126 24.4885 37.1619V39.2943C24.4885 40.2436 25.2609 41.0157 26.2099 41.0157C27.1593 41.0157 27.9314 40.2436 27.9314 39.2943ZM25.7779 39.2943V37.1619C25.7779 36.9236 25.9716 36.7296 26.2099 36.7296C26.4486 36.7296 26.6423 36.9236 26.6423 37.1619V39.2943C26.6423 39.5326 26.4486 39.7266 26.2099 39.7266C25.9716 39.7266 25.7779 39.5326 25.7779 39.2943Z" fill="#FF841D"/>
<path d="M32.1205 32.3269V30.1943C32.1205 29.2453 31.3484 28.4728 30.399 28.4728C29.45 28.4728 28.6776 29.2453 28.6776 30.1943V32.3269C28.6776 33.2759 29.45 34.0484 30.399 34.0484C31.3484 34.0484 32.1205 33.2759 32.1205 32.3269ZM29.9667 32.3269V30.1943C29.9667 29.9559 30.1607 29.7619 30.399 29.7619C30.6374 29.7619 30.8314 29.9559 30.8314 30.1943V32.3269C30.8314 32.5653 30.6374 32.7593 30.399 32.7593C30.1607 32.7593 29.9667 32.5653 29.9667 32.3269Z" fill="#FF841D"/>
</svg>
