<svg width="22" height="23" viewBox="0 0 22 23" fill="none" xmlns="http://www.w3.org/2000/svg">
<path d="M10.9978 0.800049C4.93309 0.800049 0 5.73413 0 11.8C0 17.866 4.93309 22.8 10.9978 22.8C17.0625 22.8 22 17.866 22 11.8C22 5.73413 17.0625 0.800049 10.9978 0.800049ZM10.9978 21.5488C5.62266 21.5488 1.25095 17.1763 1.25095 11.8C1.25095 6.42384 5.62266 2.05125 10.9978 2.05125C16.3729 2.05125 20.7446 6.42384 20.7446 11.8C20.7446 17.1763 16.3729 21.5488 10.9978 21.5488Z" fill="#FF9033"/>
<path d="M10.9979 11.1766C7.53233 11.1766 4.71216 13.9973 4.71216 17.4636C4.71216 17.8084 4.99506 18.0914 5.33984 18.0914C5.68463 18.0914 5.96753 17.8084 5.96753 17.4636C5.96753 14.6871 8.22632 12.4322 10.9979 12.4322C13.7694 12.4322 16.0282 14.6915 16.0282 17.4636C16.0282 17.8084 16.3111 18.0914 16.6559 18.0914C17.0007 18.0914 17.2836 17.8084 17.2836 17.4636C17.2836 13.9929 14.4634 11.1766 10.9979 11.1766Z" fill="#FF9033"/>
<path d="M10.9978 10.54C12.9029 10.54 14.4545 8.98814 14.4545 7.08259C14.4545 5.17704 12.9029 3.62961 10.9978 3.62961C9.09266 3.62961 7.54114 5.18146 7.54114 7.08701C7.54114 8.99256 9.09266 10.54 10.9978 10.54ZM10.9978 4.88082C12.2134 4.88082 13.1991 5.87117 13.1991 7.08259C13.1991 8.294 12.2134 9.28878 10.9978 9.28878C9.78222 9.28878 8.7965 8.29842 8.7965 7.08701C8.7965 5.87559 9.78664 4.88082 10.9978 4.88082Z" fill="#FF9033"/>
</svg>
