<svg width="44" height="40" viewBox="0 0 44 40" fill="none" xmlns="http://www.w3.org/2000/svg">
<path d="M23.1893 28.5854H20.8107C20.4547 28.5854 20.1662 28.8739 20.1662 29.2299C20.1662 29.586 20.4547 29.8745 20.8107 29.8745H23.1893C23.5453 29.8745 23.8338 29.586 23.8338 29.2299C23.8338 28.8739 23.5452 28.5854 23.1893 28.5854ZM17.37 21.9584H9.66797C9.31193 21.9584 9.02344 22.2469 9.02344 22.6029C9.02344 22.959 9.31193 23.2475 9.66797 23.2475H17.37C17.7261 23.2475 18.0146 22.959 18.0146 22.6029C18.0146 22.2469 17.7261 21.9584 17.37 21.9584ZM40.7773 0H3.22266C1.44564 0 0 1.44564 0 3.22266V29.4117C0 31.1887 1.44564 32.6343 3.22266 32.6343H16.1088L14.0005 38.4193H13.1626C12.8066 38.4193 12.5181 38.7078 12.5181 39.0638C12.5181 39.4199 12.8066 39.7084 13.1626 39.7084H30.8376C31.1936 39.7084 31.4821 39.4199 31.4821 39.0638C31.4821 38.7078 31.1936 38.4193 30.8376 38.4193H29.9997L27.8914 32.6343H40.7773C42.5544 32.6343 44 31.1887 44 29.4117V3.22266C44 1.44573 42.5544 0 40.7773 0V0ZM28.6275 38.4194H15.3725L17.4808 32.6344H26.5191L28.6275 38.4194ZM42.7109 29.4117C42.7109 30.4778 41.8435 31.3453 40.7773 31.3453H3.22266C2.15652 31.3453 1.28906 30.4778 1.28906 29.4117V27.1147H36.1612L38.0697 29.0232C38.3051 29.2585 38.6181 29.3882 38.9509 29.3882C39.2838 29.3882 39.5968 29.2585 39.8321 29.0232L40.8043 28.051C41.0613 27.7941 41.1809 27.452 41.166 27.1147H42.7109V29.4117ZM34.2387 12.8578C34.2387 10.7858 32.553 9.10001 30.4809 9.10001C28.4088 9.10001 26.7231 10.7858 26.7231 12.8578C26.7231 14.0769 27.3071 15.1619 28.2096 15.8489C26.9241 16.4714 25.9173 17.6049 25.4765 18.9976C25.0033 18.6448 24.6964 18.0809 24.6964 17.4467V9.74454C24.6964 8.67831 25.5638 7.81095 26.63 7.81095H34.332C35.3982 7.81095 36.2656 8.67831 36.2656 9.74454V17.4467C36.2656 17.7547 36.1941 18.0519 36.0572 18.3209H35.2199C34.6986 17.2282 33.8167 16.3624 32.7525 15.8487C33.6548 15.1617 34.2387 14.0768 34.2387 12.8578V12.8578ZM30.481 15.3264C29.1197 15.3264 28.0123 14.219 28.0123 12.8577C28.0123 11.4965 29.1197 10.389 30.481 10.389C31.8422 10.389 32.9497 11.4965 32.9497 12.8577C32.9497 14.219 31.8422 15.3264 30.481 15.3264ZM37.5611 19.61C37.5766 19.61 37.5899 19.61 37.6009 19.6365C37.6119 19.6631 37.6025 19.6725 37.5916 19.6834L35.9257 21.3494C35.4064 21.8688 35.4064 22.7138 35.9257 23.2332L39.6181 26.9256L39.6189 26.9264L39.8625 27.1699L38.951 28.0814L35.0142 24.1446C34.7545 23.885 34.4134 23.7551 34.0723 23.7551C33.7312 23.7551 33.3902 23.885 33.1304 24.1446L31.4645 25.8105C31.4536 25.8214 31.4444 25.8308 31.4176 25.8198C31.3911 25.8088 31.3911 25.7955 31.3911 25.78V19.653C31.3911 19.6294 31.4104 19.6101 31.434 19.6101L37.5611 19.61ZM34.8721 25.8256H33.2724L34.0419 25.0561C34.0586 25.0393 34.0861 25.0394 34.1026 25.0561L34.8721 25.8256ZM42.7109 25.8256H41.4219V4.08203C41.4219 3.25282 40.7472 2.57813 39.918 2.57813H4.08203C3.25282 2.57813 2.57812 3.25282 2.57812 4.08203V9.69014C2.57812 10.0461 2.86662 10.3347 3.22266 10.3347C3.5787 10.3347 3.86719 10.0461 3.86719 9.69014V4.08203C3.86719 3.96361 3.96352 3.86719 4.08203 3.86719H39.918C40.0365 3.86719 40.1328 3.96361 40.1328 4.08203V25.6171L36.8372 22.3216C36.8204 22.3048 36.8204 22.2774 36.8372 22.2607L38.5031 20.5948C38.8853 20.2125 38.9988 19.6426 38.7918 19.1431C38.5849 18.6435 38.1019 18.3208 37.5611 18.3208H37.4351C37.5141 18.0392 37.5547 17.7459 37.5547 17.4466V9.74454C37.5547 7.96752 36.109 6.52188 34.332 6.52188H26.63C24.853 6.52188 23.4073 7.96752 23.4073 9.74454V17.4467C23.4073 18.9207 24.4024 20.1658 25.7558 20.5478C25.7607 20.5491 25.7654 20.5507 25.7703 20.552C26.0442 20.6278 26.3323 20.6693 26.63 20.6693H28.1684C28.5245 20.6693 28.813 20.3808 28.813 20.0247C28.813 19.6687 28.5245 19.3802 28.1684 19.3802H26.707C27.2194 17.7667 28.7412 16.6155 30.4809 16.6155C31.7918 16.6155 33.0046 17.2737 33.7342 18.3209H31.434C30.6995 18.3209 30.1019 18.9185 30.1019 19.653V21.9583H26.6299C26.2738 21.9583 25.9854 22.2468 25.9854 22.6029C25.9854 22.9589 26.2738 23.2474 26.6299 23.2474H30.1019V25.78C30.1019 25.7953 30.1031 25.8103 30.1036 25.8255H3.86719V12.2683C3.86719 11.9123 3.5787 11.6237 3.22266 11.6237C2.86662 11.6237 2.57812 11.9123 2.57812 12.2683V25.8256H1.28906V3.22266C1.28906 2.15643 2.15652 1.28906 3.22266 1.28906H40.7773C41.8435 1.28906 42.7109 2.15643 42.7109 3.22266V25.8256ZM8.79837 20.5491C8.80146 20.5499 8.80447 20.5509 8.80756 20.5517C9.0817 20.6278 9.37002 20.6693 9.66805 20.6693H17.3701C19.0095 20.7013 20.6266 19.2368 20.5928 17.4466V9.74454C20.5928 7.96752 19.1471 6.52188 17.3701 6.52188H9.66797C7.89095 6.52188 6.44531 7.96752 6.44531 9.74454V17.4467C6.44531 18.9223 7.44262 20.1686 8.79837 20.5491ZM9.74497 19.3803C10.2576 17.7668 11.7794 16.6156 13.519 16.6156C15.2587 16.6156 16.7805 17.7668 17.2929 19.3803H9.74497ZM11.0504 12.8578C11.0504 11.4965 12.1578 10.3891 13.5191 10.3891C14.8803 10.3891 15.9878 11.4965 15.9878 12.8578C15.9878 14.219 14.8803 15.3265 13.5191 15.3265C12.1578 15.3265 11.0504 14.219 11.0504 12.8578ZM7.73438 9.74454C7.73438 8.67831 8.60183 7.81095 9.66797 7.81095H17.37C18.4362 7.81095 19.3036 8.67831 19.3036 9.74454V17.4467C19.3036 18.0809 18.9966 18.6447 18.5235 18.9976C18.0827 17.6049 17.0759 16.4714 15.7904 15.8489C16.6928 15.1619 17.2769 14.0769 17.2769 12.8578C17.2769 10.7858 15.5912 9.10001 13.5191 9.10001C11.447 9.10001 9.7613 10.7858 9.7613 12.8578C9.7613 14.0769 10.3452 15.1619 11.2478 15.8489C9.9623 16.4714 8.95538 17.6049 8.51469 18.9976C8.04143 18.6448 7.73438 18.0809 7.73438 17.4467V9.74454Z" fill="#FF841D"/>
</svg>
