<svg width="24" height="24" viewBox="0 0 24 24" fill="none" xmlns="http://www.w3.org/2000/svg">
<path d="M17.5034 0H6.49657C2.9143 0 0 2.9143 0 6.49657V17.5036C0 21.0857 2.9143 24 6.49657 24H17.5036C21.0857 24 24 21.0857 24 17.5036V6.49657C24 2.9143 21.0857 0 17.5034 0V0ZM22.593 17.5036C22.593 20.3098 20.3098 22.593 17.5034 22.593H6.49657C3.69012 22.593 1.40698 20.3098 1.40698 17.5036V6.49657C1.40698 3.69012 3.69012 1.40698 6.49657 1.40698H17.5036C20.3098 1.40698 22.593 3.69012 22.593 6.49657V17.5036Z" fill="#FF9033"/>
<path d="M12 5.43766C8.38145 5.43766 5.43766 8.38145 5.43766 12C5.43766 15.6185 8.38145 18.5623 12 18.5623C15.6185 18.5623 18.5623 15.6185 18.5623 12C18.5623 8.38145 15.6185 5.43766 12 5.43766V5.43766ZM12 17.1553C9.15744 17.1553 6.84464 14.8427 6.84464 12C6.84464 9.15744 9.15744 6.84464 12 6.84464C14.8427 6.84464 17.1553 9.15744 17.1553 12C17.1553 14.8427 14.8427 17.1553 12 17.1553V17.1553Z" fill="#FF9033"/>
<path d="M18.7192 3.10713C17.6499 3.10713 16.7801 3.97706 16.7801 5.04621C16.7801 6.11555 17.6499 6.98548 18.7192 6.98548C19.7885 6.98548 20.6585 6.11555 20.6585 5.04621C20.6585 3.97688 19.7885 3.10713 18.7192 3.10713ZM18.7192 5.57831C18.4259 5.57831 18.1871 5.33955 18.1871 5.04621C18.1871 4.75269 18.4259 4.51411 18.7192 4.51411C19.0127 4.51411 19.2515 4.75269 19.2515 5.04621C19.2515 5.33955 19.0127 5.57831 18.7192 5.57831Z" fill="#FF9033"/>
</svg>
