<svg width="16" height="16" viewBox="0 0 16 16" fill="none" xmlns="http://www.w3.org/2000/svg">
<g clip-path="url(#clip0_1_10)">
<path d="M10.6855 1.83087C8.24466 -0.609956 4.27204 -0.609956 1.83122 1.83087C-0.609073 4.27222 -0.609073 8.24431 1.83122 10.6857C4.00483 12.8587 7.39013 13.0916 9.82937 11.3947C9.88069 11.6375 9.99815 11.8693 10.187 12.0582L13.7417 15.6128C14.2597 16.1298 15.0967 16.1298 15.6121 15.6128C16.1296 15.0953 16.1296 14.2583 15.6121 13.7424L12.0575 10.1867C11.8696 9.99939 11.6374 9.8814 11.3945 9.83007C13.0924 7.39031 12.8596 4.00554 10.6855 1.83087ZM9.56322 9.5634C7.74094 11.3857 4.77523 11.3857 2.95348 9.5634C1.13225 7.74111 1.13225 4.77594 2.95348 2.95365C4.77523 1.1319 7.74094 1.1319 9.56322 2.95365C11.3855 4.77594 11.3855 7.74111 9.56322 9.5634Z" fill="#FF9033"/>
</g>
<defs>
<clipPath id="clip0_1_10">
<rect width="16" height="16" fill="white"/>
</clipPath>
</defs>
</svg>
