<svg width="24" height="24" viewBox="0 0 24 24" fill="none" xmlns="http://www.w3.org/2000/svg">
<path d="M18.9675 14.8671C18.4762 14.3555 17.8835 14.082 17.2554 14.082C16.6324 14.082 16.0347 14.3505 15.5231 14.8621L13.9224 16.4577C13.7907 16.3867 13.659 16.3209 13.5324 16.255C13.35 16.1639 13.1778 16.0778 13.0309 15.9866C11.5316 15.0343 10.169 13.7933 8.86213 12.1876C8.22896 11.3872 7.80347 10.7135 7.49448 10.0297C7.90984 9.64981 8.29481 9.25472 8.66965 8.87481C8.81148 8.73298 8.95331 8.58609 9.09514 8.44426C10.1589 7.38053 10.1589 6.00275 9.09514 4.93903L7.71229 3.55618C7.55527 3.39916 7.39317 3.23707 7.24121 3.07497C6.93729 2.76092 6.61817 2.43674 6.28892 2.13282C5.79758 1.64654 5.21 1.38821 4.59203 1.38821C3.97405 1.38821 3.37634 1.64654 2.8698 2.13282C2.86474 2.13788 2.86474 2.13788 2.85967 2.14295L1.13745 3.88037C0.489082 4.52873 0.119311 5.31893 0.0382649 6.23576C-0.0833038 7.71485 0.352318 9.09262 0.686632 9.99426C1.50722 12.2078 2.73304 14.2593 4.56164 16.4577C6.78026 19.1068 9.44971 21.1988 12.4991 22.6729C13.6641 23.225 15.2192 23.8784 16.9566 23.9899C17.063 23.9949 17.1744 24 17.2757 24C18.4458 24 19.4285 23.5796 20.1984 22.7438C20.2035 22.7336 20.2136 22.7286 20.2187 22.7184C20.4821 22.3993 20.786 22.1106 21.1051 21.8016C21.3229 21.5939 21.5458 21.3761 21.7636 21.1482C22.2651 20.6265 22.5285 20.0186 22.5285 19.3956C22.5285 18.7675 22.26 18.1647 21.7484 17.6582L18.9675 14.8671ZM20.7809 20.201C20.7759 20.201 20.7759 20.206 20.7809 20.201C20.5834 20.4137 20.3808 20.6062 20.163 20.8189C19.8337 21.133 19.4994 21.4622 19.1853 21.832C18.6737 22.3791 18.071 22.6374 17.2808 22.6374C17.2048 22.6374 17.1237 22.6374 17.0478 22.6323C15.5433 22.5361 14.1453 21.9485 13.0968 21.447C10.2298 20.0591 7.71229 18.0887 5.6203 15.5915C3.89301 13.5096 2.7381 11.5848 1.97323 9.51811C1.50216 8.25684 1.32993 7.27416 1.40591 6.3472C1.45657 5.75455 1.68451 5.26321 2.10493 4.84279L3.83222 3.1155C4.08043 2.88249 4.34382 2.75586 4.60216 2.75586C4.92128 2.75586 5.17961 2.94834 5.3417 3.11043C5.34677 3.1155 5.35183 3.12056 5.3569 3.12563C5.66588 3.41435 5.95968 3.71321 6.26866 4.03233C6.42569 4.19442 6.58778 4.35651 6.74987 4.52367L8.13272 5.90651C8.66965 6.44344 8.66965 6.93985 8.13272 7.47677C7.98582 7.62367 7.84399 7.77056 7.6971 7.91239C7.2716 8.34802 6.86638 8.75324 6.42569 9.14834C6.41556 9.15847 6.40543 9.16354 6.40036 9.17367C5.96474 9.60929 6.04579 10.0348 6.13696 10.3235C6.14203 10.3387 6.14709 10.3539 6.15216 10.3691C6.5118 11.2403 7.01834 12.0609 7.78827 13.0385L7.79334 13.0436C9.19138 14.7658 10.6654 16.1082 12.2914 17.1364C12.4991 17.2681 12.7118 17.3745 12.9144 17.4758C13.0968 17.567 13.269 17.6531 13.4159 17.7443C13.4362 17.7544 13.4564 17.7696 13.4767 17.7797C13.6489 17.8658 13.811 17.9064 13.9781 17.9064C14.3986 17.9064 14.662 17.643 14.7481 17.5568L16.4804 15.8245C16.6527 15.6523 16.9262 15.4446 17.2453 15.4446C17.5594 15.4446 17.8177 15.6421 17.9747 15.8144C17.9798 15.8194 17.9798 15.8194 17.9848 15.8245L20.7759 18.6155C21.2976 19.1322 21.2976 19.664 20.7809 20.201Z" fill="#FF9033"/>
</svg>
