<svg width="22" height="22" viewBox="0 0 22 22" fill="none" xmlns="http://www.w3.org/2000/svg">
<path d="M17.3869 13.6282C16.9365 13.1592 16.3932 12.9085 15.8175 12.9085C15.2464 12.9085 14.6985 13.1546 14.2295 13.6236L12.7622 15.0862C12.6415 15.0212 12.5208 14.9608 12.4047 14.9005C12.2375 14.8169 12.0797 14.738 11.945 14.6544C10.5706 13.7814 9.32158 12.6438 8.12362 11.1719C7.54321 10.4383 7.15318 9.82075 6.86994 9.19391C7.25069 8.84567 7.60357 8.48349 7.94717 8.13525C8.07719 8.00524 8.2072 7.87059 8.33721 7.74057C9.31229 6.76549 9.31229 5.50253 8.33721 4.52745L7.0696 3.25984C6.92566 3.1159 6.77707 2.96732 6.63778 2.81873C6.35918 2.53085 6.06666 2.23368 5.76485 1.95509C5.31445 1.50934 4.77583 1.27253 4.20936 1.27253C3.64288 1.27253 3.09498 1.50934 2.63065 1.95509C2.62601 1.95973 2.62601 1.95973 2.62137 1.96437L1.04266 3.55701C0.448324 4.15134 0.109367 4.87569 0.0350746 5.71612C-0.0763634 7.07195 0.322956 8.33491 0.629411 9.16141C1.38162 11.1905 2.50528 13.071 4.1815 15.0862C6.21524 17.5146 8.66223 19.4323 11.4575 20.7835C12.5254 21.2896 13.9509 21.8886 15.5435 21.9907C15.641 21.9953 15.7432 22 15.8361 22C16.9086 22 17.8094 21.6146 18.5152 20.8485C18.5199 20.8392 18.5291 20.8345 18.5338 20.8253C18.7752 20.5327 19.0538 20.2681 19.3464 19.9848C19.546 19.7944 19.7503 19.5948 19.95 19.3858C20.4097 18.9076 20.6511 18.3504 20.6511 17.7793C20.6511 17.2035 20.405 16.651 19.936 16.1866L17.3869 13.6282ZM19.0492 18.5176C19.0445 18.5176 19.0445 18.5222 19.0492 18.5176C18.8681 18.7126 18.6824 18.889 18.4827 19.084C18.1809 19.3719 17.8744 19.6737 17.5866 20.0127C17.1176 20.5142 16.565 20.751 15.8407 20.751C15.7711 20.751 15.6968 20.751 15.6271 20.7463C14.2481 20.6581 12.9665 20.1195 12.0054 19.6598C9.3773 18.3875 7.0696 16.5813 5.15194 14.2922C3.56859 12.3838 2.50993 10.6194 1.8088 8.72494C1.37697 7.56877 1.2191 6.66798 1.28875 5.81827C1.33518 5.27501 1.54413 4.82462 1.92952 4.43923L3.51287 2.85588C3.74039 2.64229 3.98184 2.52621 4.21864 2.52621C4.51117 2.52621 4.74797 2.70265 4.89656 2.85123C4.9012 2.85588 4.90584 2.86052 4.91049 2.86516C5.19373 3.12983 5.46303 3.40378 5.74627 3.69631C5.89021 3.84489 6.0388 3.99347 6.18738 4.1467L7.45499 5.41431C7.94717 5.90649 7.94717 6.36153 7.45499 6.85371C7.32033 6.98837 7.19032 7.12302 7.05567 7.25303C6.66564 7.65235 6.29418 8.02381 5.89021 8.38599C5.88093 8.39527 5.87164 8.39992 5.867 8.4092C5.46768 8.80852 5.54197 9.19855 5.62555 9.46322C5.63019 9.47715 5.63484 9.49108 5.63948 9.50501C5.96915 10.3036 6.43347 11.0559 7.13925 11.952L7.14389 11.9566C8.42543 13.5353 9.77661 14.7658 11.2671 15.7084C11.4575 15.8291 11.6525 15.9266 11.8382 16.0195C12.0054 16.1031 12.1632 16.182 12.2979 16.2656C12.3165 16.2749 12.335 16.2888 12.3536 16.2981C12.5115 16.377 12.6601 16.4142 12.8133 16.4142C13.1987 16.4142 13.4401 16.1727 13.5191 16.0938L15.1071 14.5058C15.2649 14.3479 15.5157 14.1575 15.8082 14.1575C16.0961 14.1575 16.3329 14.3386 16.4768 14.4965C16.4815 14.5011 16.4815 14.5011 16.4861 14.5058L19.0445 17.0642C19.5228 17.5378 19.5228 18.0254 19.0492 18.5176Z" fill="#FF9033"/>
</svg>
