<svg width="8" height="8" viewBox="0 0 8 8" fill="none" xmlns="http://www.w3.org/2000/svg">
<g clip-path="url(#clip0_1_29)">
<path d="M6.22235 3.68784L2.66225 0.127808C2.57991 0.0454018 2.46999 3.8147e-06 2.35279 3.8147e-06C2.23559 3.8147e-06 2.12567 0.0454018 2.04333 0.127808L1.78115 0.389919C1.61055 0.560714 1.61055 0.838306 1.78115 1.00884L4.77066 3.99834L1.77784 6.99116C1.6955 7.07357 1.65003 7.18342 1.65003 7.30056C1.65003 7.41783 1.6955 7.52768 1.77784 7.61015L2.04001 7.8722C2.12242 7.9546 2.23227 8 2.34947 8C2.46668 8 2.57659 7.9546 2.65893 7.8722L6.22235 4.30891C6.30489 4.22624 6.35022 4.11587 6.34996 3.99854C6.35022 3.88075 6.30489 3.77044 6.22235 3.68784Z" fill="#FF9033"/>
</g>
<defs>
<clipPath id="clip0_1_29">
<rect width="8" height="8" fill="white"/>
</clipPath>
</defs>
</svg>
