<svg width="9" height="9" viewBox="0 0 9 9" fill="none" xmlns="http://www.w3.org/2000/svg">
<g clip-path="url(#clip0_1_49)">
<path d="M4.85118 7.00015L8.85622 2.99503C8.94892 2.9024 9 2.77874 9 2.64689C9 2.51504 8.94892 2.39138 8.85622 2.29874L8.56134 2.0038C8.3692 1.81187 8.05691 1.81187 7.86505 2.0038L4.50186 5.36699L1.13494 2.00006C1.04223 1.90743 0.91865 1.85628 0.786871 1.85628C0.654945 1.85628 0.53136 1.90743 0.438581 2.00006L0.143778 2.29501C0.0510719 2.38772 -5.74993e-07 2.5113 -5.80756e-07 2.64316C-5.8652e-07 2.77501 0.0510719 2.89867 0.143778 2.9913L4.15248 7.00015C4.24548 7.093 4.36964 7.144 4.50164 7.14371C4.63415 7.144 4.75825 7.093 4.85118 7.00015Z" fill="#372E2E"/>
</g>
<defs>
<clipPath id="clip0_1_49">
<rect width="9" height="9" fill="white" transform="translate(9) rotate(90)"/>
</clipPath>
</defs>
</svg>
