<svg width="42" height="42" viewBox="0 0 42 42" fill="none" xmlns="http://www.w3.org/2000/svg">
<g clip-path="url(#clip0_1_71)">
<path d="M9.45656 6.66555C9.79634 6.66555 10.0718 6.3901 10.0718 6.05032C10.0718 5.71054 9.79634 5.43509 9.45656 5.43509C9.11677 5.43509 8.84132 5.71054 8.84132 6.05032C8.84132 6.3901 9.11677 6.66555 9.45656 6.66555Z" fill="#FF841D"/>
<path d="M12.2661 6.66555C12.6059 6.66555 12.8814 6.3901 12.8814 6.05032C12.8814 5.71054 12.6059 5.43509 12.2661 5.43509C11.9263 5.43509 11.6509 5.71054 11.6509 6.05032C11.6509 6.3901 11.9263 6.66555 12.2661 6.66555Z" fill="#FF841D"/>
<path d="M15.0757 6.66555C15.4155 6.66555 15.6909 6.3901 15.6909 6.05032C15.6909 5.71054 15.4155 5.43509 15.0757 5.43509C14.7359 5.43509 14.4605 5.71054 14.4605 6.05032C14.4605 6.3901 14.7359 6.66555 15.0757 6.66555Z" fill="#FF841D"/>
<path d="M18.5415 37.5293H15.8345C15.4947 37.5293 15.2192 37.8048 15.2192 38.1445C15.2192 38.4843 15.4947 38.7598 15.8345 38.7598H18.5415C18.8813 38.7598 19.1567 38.4843 19.1567 38.1445C19.1567 37.8048 18.8813 37.5293 18.5415 37.5293Z" fill="#FF841D"/>
<path d="M36.1799 11.2668C35.0313 10.1182 33.7173 9.23377 32.3143 8.61164V3.1468C32.3143 1.41168 30.9026 0 29.1675 0H5.20844C3.47323 0 2.06155 1.41168 2.06155 3.1468V38.8532C2.06155 40.5884 3.47323 42 5.20844 42H29.1675C30.9026 42 32.3143 40.5884 32.3143 38.8532V32.0998C33.7173 31.4777 35.0313 30.5931 36.1799 29.4446C41.1915 24.4329 41.1915 16.2784 36.1799 11.2668ZM5.20844 40.7695C4.15179 40.7695 3.2921 39.9099 3.2921 38.8532V3.1468C3.29202 2.09016 4.15171 1.23047 5.20844 1.23047H29.1675C30.2242 1.23047 31.0838 2.09016 31.0838 3.1468V8.1398C30.3855 7.91282 29.6715 7.74679 28.9502 7.64228V5.15534C28.9502 4.1676 28.1466 3.3641 27.1589 3.3641H7.21697C6.22923 3.3641 5.42574 4.1676 5.42574 5.15534V34.0593C5.42574 34.9699 6.10889 35.7235 6.98958 35.8356L6.13555 36.5856C5.23075 37.3802 5.18539 38.7773 6.03695 39.6288L7.1776 40.7695H5.20844ZM17.8509 33.3513C18.1558 33.0042 18.2689 32.5506 18.1977 32.1232L19.5532 30.7676C21.7928 32.3909 24.4417 33.2032 27.0909 33.2032C27.3006 33.2032 27.5103 33.198 27.7197 33.1878V34.0591C27.7197 34.3684 27.4682 34.6199 27.1589 34.6199H16.7369L17.8509 33.3513ZM16.0513 33.5359L13.9108 31.3953L14.9072 30.5204C15.0087 30.4312 15.1636 30.4357 15.2596 30.5318L16.9149 32.1871C17.0107 32.2829 17.0157 32.4377 16.9264 32.5395L16.0513 33.5359ZM17.5244 31.0565L16.3903 29.9223L17.453 28.8596C17.8275 29.2829 18.1788 29.6326 18.5874 29.9935L17.5244 31.0565ZM15.3235 29.2489C14.8961 29.1777 14.4424 29.2908 14.0954 29.5957L8.37378 34.6201H7.21697C6.90771 34.6201 6.65621 34.3686 6.65621 34.0593V8.73633H21.5949C20.2943 9.35 19.0759 10.193 18.0021 11.2668C15.5744 13.6945 14.2374 16.9224 14.2374 20.3557C14.2374 23.1016 15.0934 25.7156 16.6779 27.8946L15.3235 29.2489ZM6.65621 7.50586V5.15534C6.65621 4.84608 6.90771 4.59457 7.21697 4.59457H27.159C27.4683 4.59457 27.7198 4.84608 27.7198 5.15534V7.50586H6.65621ZM9.48021 40.7695H9.10697C8.95005 40.7349 8.80534 40.6571 8.68804 40.5398L6.90698 38.7587C6.55826 38.4101 6.57393 37.8381 6.94742 37.5102L12.9843 32.2089L15.2377 34.4623L9.93647 40.4992C9.81457 40.6382 9.65609 40.7307 9.48021 40.7695V40.7695ZM31.0838 38.8532C31.0838 39.9098 30.2242 40.7695 29.1675 40.7695H11.3367L15.6563 35.8505H27.159C28.1467 35.8505 28.9502 35.047 28.9502 34.0593V33.0692C29.6715 32.9646 30.3855 32.7986 31.0839 32.5716V38.8532H31.0838ZM35.3098 28.5745C28.0212 35.863 15.4678 30.6262 15.4678 20.3557C15.4678 17.2511 16.6768 14.3323 18.8721 12.1369C23.404 7.6052 30.7777 7.60495 35.3098 12.1369C39.8416 16.6688 39.8416 24.0426 35.3098 28.5745Z" fill="#FF841D"/>
<path d="M32.377 27.2786C28.9289 29.919 24.0087 29.5904 20.9324 26.5141C17.8537 23.4355 17.5268 18.5129 20.172 15.064C20.3788 14.7944 20.3279 14.4082 20.0583 14.2014C19.7886 13.9946 19.4024 14.0455 19.1956 14.3152C16.1761 18.2522 16.5487 23.8706 20.0623 27.3841C21.985 29.3069 24.539 30.2889 27.1028 30.2889C29.2202 30.2889 31.3445 29.6189 33.125 28.2556C33.3948 28.049 33.446 27.6628 33.2395 27.3931C33.033 27.1234 32.6469 27.0719 32.377 27.2786Z" fill="#FF841D"/>
<path d="M34.1196 13.3271C30.7044 9.91205 25.3572 9.4384 21.4046 12.2012C21.1261 12.3959 21.0582 12.7795 21.2529 13.058C21.4476 13.3365 21.8312 13.4045 22.1096 13.2097C25.5721 10.7895 30.2572 11.2048 33.2495 14.1972C36.2395 17.1872 36.6565 21.8697 34.2411 25.3314C34.0467 25.61 34.1149 25.9935 34.3935 26.188C34.5008 26.2628 34.6235 26.2988 34.745 26.2988C34.9393 26.2988 35.1305 26.207 35.2501 26.0356C38.0074 22.084 37.5319 16.7393 34.1196 13.3271V13.3271Z" fill="#FF841D"/>
</g>
<defs>
<clipPath id="clip0_1_71">
<rect width="42" height="42" fill="white"/>
</clipPath>
</defs>
</svg>
