<svg width="26" height="26" viewBox="0 0 26 26" fill="none" xmlns="http://www.w3.org/2000/svg">
<path d="M22.6076 8.11381H21.2239C21.19 6.49637 20.9933 5.05985 19.9992 3.89402C19.1231 2.8669 17.7451 2.23024 15.7491 1.94783C15.481 1.49923 14.9716 1.1954 14.388 1.1954H11.6122C11.0286 1.1954 10.5191 1.49923 10.2511 1.94783C8.25501 2.23024 6.87706 2.8669 6.00106 3.89402C5.00679 5.05985 4.81016 6.49637 4.77624 8.11381H3.39257C1.52194 8.11381 0 9.63575 0 11.5064C0 13.094 1.09619 14.4304 2.57142 14.7985V20.3407C2.57142 22.8021 4.5739 24.8046 7.03533 24.8046H18.9647C21.4262 24.8046 23.4286 22.8021 23.4286 20.3407V14.7985C24.9038 14.4305 26 13.094 26 11.5064C26.0001 9.63568 24.4783 8.11381 22.6076 8.11381ZM7.35959 5.05271C7.94132 4.37063 8.98102 3.92716 10.5107 3.71297C10.7934 3.97859 11.1827 4.143 11.6121 4.143H14.3879C14.8173 4.143 15.2066 3.97859 15.4893 3.71297C17.0189 3.92716 18.0587 4.37063 18.6404 5.05271C19.2712 5.79229 19.4098 6.83677 19.4378 8.11381H6.56223C6.59008 6.83677 6.72878 5.79229 7.35959 5.05271ZM22.6076 13.1134H22.5214C22.2711 13.1134 22.0416 13.2185 21.8726 13.403C21.7035 13.5875 21.6413 13.8382 21.6413 14.0837L21.6431 20.3406C21.6431 21.8176 20.4418 23.019 18.9647 23.019H7.03533C5.55846 23.019 4.35699 21.8176 4.35699 20.3406L4.35656 14.0837C4.35656 13.8225 4.29435 13.5875 4.12529 13.403C3.95623 13.2185 3.72897 13.1134 3.4787 13.1134H3.39257C2.50643 13.1134 1.78556 12.3925 1.78556 11.5064C1.78556 10.6203 2.50643 9.89937 3.39257 9.89937H22.6076C23.4936 9.89937 24.2146 10.6203 24.2146 11.5064C24.2146 12.3924 23.4936 13.1134 22.6076 13.1134Z" fill="#FF9033"/>
<path d="M8.00046 14.7961C7.50736 14.7961 7.10768 15.1959 7.10768 15.6889V19.5457C7.10768 20.0386 7.50736 20.4385 8.00046 20.4385C8.49356 20.4385 8.89324 20.0386 8.89324 19.5457V15.6889C8.89324 15.1959 8.49356 14.7961 8.00046 14.7961Z" fill="#FF9033"/>
<path d="M13 14.7961C12.5069 14.7961 12.1073 15.1959 12.1073 15.6889V19.5457C12.1073 20.0386 12.5069 20.4385 13 20.4385C13.4931 20.4385 13.8928 20.0386 13.8928 19.5457V15.6889C13.8928 15.1959 13.4931 14.7961 13 14.7961Z" fill="#FF9033"/>
<path d="M17.9996 14.7961C17.5065 14.7961 17.1068 15.1959 17.1068 15.6889V19.5457C17.1068 20.0386 17.5065 20.4385 17.9996 20.4385C18.4927 20.4385 18.8924 20.0386 18.8924 19.5457V15.6889C18.8924 15.1959 18.4927 14.7961 17.9996 14.7961Z" fill="#FF9033"/>
</svg>
