<svg width="31" height="31" viewBox="0 0 31 31" fill="none" xmlns="http://www.w3.org/2000/svg">
<path fill-rule="evenodd" clip-rule="evenodd" d="M0 15.2292C0 6.81833 6.81833 0 15.2292 0C23.6401 0 30.4583 6.81833 30.4583 15.2292C30.4583 23.6401 23.6401 30.4583 15.2292 30.4583C6.81833 30.4583 0 23.6401 0 15.2292ZM17.3971 8.8112C16.9822 8.39627 16.3095 8.39627 15.8946 8.8112C15.4796 9.22613 15.4796 9.89887 15.8946 10.3138L19.039 13.4583H8.14583C7.55904 13.4583 7.08333 13.9341 7.08333 14.5208C7.08333 15.1076 7.55904 15.5833 8.14583 15.5833H19.2627L15.8463 19.4878C15.4598 19.9294 15.5046 20.6007 15.9461 20.9871C16.3877 21.3735 17.0591 21.3288 17.4454 20.8872L22.4037 15.2205C22.7721 14.7995 22.751 14.1651 22.3554 13.7696L17.3971 8.8112Z" fill="#FF9033"/>
</svg>
