<svg width="31" height="31" viewBox="0 0 31 31" fill="none" xmlns="http://www.w3.org/2000/svg">
<path fill-rule="evenodd" clip-rule="evenodd" d="M30.4583 15.2292C30.4583 23.64 23.64 30.4583 15.2292 30.4583C6.81828 30.4583 5.96078e-07 23.64 1.33138e-06 15.2292C2.06668e-06 6.81828 6.81828 1.74802e-06 15.2292 2.48332e-06C23.64 3.21862e-06 30.4583 6.81828 30.4583 15.2292ZM13.0612 21.6471C13.4762 22.0621 14.1488 22.0621 14.5638 21.6471C14.9787 21.2322 14.9787 20.5595 14.5638 20.1445L11.4193 17L22.3125 17C22.8993 17 23.375 16.5243 23.375 15.9375C23.375 15.3507 22.8993 14.875 22.3125 14.875L11.1956 14.875L14.6121 10.9705C14.9985 10.529 14.9538 9.8576 14.5122 9.47127C14.0706 9.0848 13.3993 9.12957 13.0129 9.57114L8.0546 15.2378C7.68627 15.6588 7.70738 16.2932 8.10291 16.6888L13.0612 21.6471Z" fill="#D2D2D2"/>
</svg>
