<svg width="28" height="28" viewBox="0 0 28 28" fill="none" xmlns="http://www.w3.org/2000/svg">
<path d="M22.7754 0H5.25C3.89307 0 2.78906 1.104 2.78906 2.46094V25.5391C2.78906 26.896 3.89307 28 5.25 28H22.7756C24.1326 28 25.2366 26.896 25.2366 25.5391V2.46094C25.2364 1.104 24.1324 0 22.7754 0V0ZM23.5957 25.5391C23.5957 25.9913 23.2279 26.3594 22.7754 26.3594H5.25C4.79776 26.3594 4.42969 25.9913 4.42969 25.5391V2.46094C4.42969 2.0087 4.79776 1.64062 5.25 1.64062H22.7756C23.2279 1.64062 23.5959 2.0087 23.5959 2.46094V25.5391H23.5957Z" fill="#FF9033"/>
<path d="M14.0126 11.0409C14.2388 11.0409 14.455 10.9473 14.6101 10.7826L16.8741 8.37552C16.8809 8.36826 16.8876 8.36099 16.894 8.35352C17.2432 7.97263 17.6359 7.44156 17.6295 6.69687C17.619 5.53946 16.7079 4.57517 15.5552 4.50125C14.9797 4.46451 14.4322 4.64758 14.0077 4.99451C13.6191 4.68155 13.1284 4.50018 12.6147 4.50018C11.3912 4.50018 10.396 5.49545 10.396 6.71887C10.396 7.4657 10.8307 7.99228 11.1184 8.3407C11.1298 8.35437 11.1415 8.36762 11.1537 8.38065L13.4151 10.7828C13.5702 10.9475 13.7864 11.0409 14.0126 11.0409V11.0409ZM12.6147 6.14081C12.8394 6.14081 13.0393 6.26706 13.1365 6.47C13.2974 6.80624 13.6411 7.02307 14.0128 7.02307H14.015C14.3918 7.02222 14.7265 6.80966 14.888 6.46851C14.9902 6.25296 15.2108 6.12372 15.4505 6.13867C15.7447 6.15747 15.9863 6.41446 15.9888 6.7114C15.9899 6.83637 15.9376 6.97116 15.6737 7.25678C15.6708 7.25998 15.6678 7.26318 15.665 7.26639L14.0122 9.02365L12.3666 7.27557C12.2152 7.09207 12.0366 6.87033 12.0366 6.71909C12.0366 6.40015 12.2959 6.14081 12.6147 6.14081Z" fill="#FF9033"/>
<path d="M19.8934 13.3438H12.3549C11.9018 13.3438 11.5346 13.711 11.5346 14.1641C11.5346 14.6172 11.9018 14.9844 12.3549 14.9844H19.8934C20.3465 14.9844 20.7137 14.6172 20.7137 14.1641C20.7137 13.711 20.3465 13.3438 19.8934 13.3438Z" fill="#FF9033"/>
<path d="M10.2603 14.1641C10.2603 14.9028 9.66153 15.5018 8.92261 15.5018C8.1839 15.5018 7.58511 14.9028 7.58511 14.1641C7.58511 13.4254 8.1839 12.8264 8.92261 12.8264C9.66153 12.8264 10.2603 13.4254 10.2603 14.1641Z" fill="#FF9033"/>
<path d="M19.8934 17.5H12.3549C11.9018 17.5 11.5346 17.8672 11.5346 18.3203C11.5346 18.7734 11.9018 19.1406 12.3549 19.1406H19.8934C20.3465 19.1406 20.7137 18.7734 20.7137 18.3203C20.7137 17.8672 20.3465 17.5 19.8934 17.5Z" fill="#FF9033"/>
<path d="M10.2603 18.3203C10.2603 19.059 9.66153 19.658 8.92261 19.658C8.1839 19.658 7.58511 19.059 7.58511 18.3203C7.58511 17.5816 8.1839 16.9826 8.92261 16.9826C9.66153 16.9826 10.2603 17.5816 10.2603 18.3203Z" fill="#FF9033"/>
<path d="M19.8934 21.6562H12.3549C11.9018 21.6562 11.5346 22.0235 11.5346 22.4766C11.5346 22.9297 11.9018 23.2969 12.3549 23.2969H19.8934C20.3465 23.2969 20.7137 22.9297 20.7137 22.4766C20.7137 22.0235 20.3465 21.6562 19.8934 21.6562Z" fill="#FF9033"/>
<path d="M10.2603 22.4766C10.2603 23.2153 9.66153 23.8143 8.92261 23.8143C8.1839 23.8143 7.58511 23.2153 7.58511 22.4766C7.58511 21.7379 8.1839 21.1389 8.92261 21.1389C9.66153 21.1389 10.2603 21.7379 10.2603 22.4766Z" fill="#FF9033"/>
</svg>
