<svg width="43" height="42" viewBox="0 0 43 42" fill="none" xmlns="http://www.w3.org/2000/svg">
<g clip-path="url(#clip0_0_772)">
<path d="M23.5316 26.2224C23.3026 26.0097 23.0899 25.8134 22.9345 25.6335C22.6646 25.3554 22.2802 25.1918 21.863 25.1918C21.4541 25.1918 21.0615 25.3554 20.7916 25.6335L16.4157 30.0175C16.0967 30.3447 15.6632 30.5246 15.2216 30.5328C16.0722 29.764 16.4812 29.0524 16.4812 28.3572C16.4812 27.6456 16.0558 26.9258 15.1807 26.1733C14.6654 25.7071 14.1174 25.4944 13.5612 25.5272C12.8741 25.5762 12.1544 26.0097 11.4346 26.8195C11.4101 26.3287 11.59 25.8462 11.9417 25.4944L16.3258 21.0941C16.9065 20.5133 16.9065 19.5564 16.3258 18.9675C16.1376 18.8039 15.9413 18.5831 15.7205 18.354C15.1071 17.6915 14.4118 16.939 13.6348 16.9145C13.2749 16.9063 12.9232 17.0536 12.5961 17.3725C11.9826 18.0269 11.2874 18.6976 10.6085 19.3355C7.15691 22.6399 3.5908 26.0506 7.17327 31.1054L4.13062 34.148C3.95068 34.3279 3.88525 34.5488 3.9425 34.7778C4.00793 35.0314 4.22877 35.244 4.48233 35.3176C4.71134 35.3749 4.94036 35.3094 5.11212 35.1295L13.0786 27.163C13.2177 27.0158 13.4222 26.934 13.643 26.934C13.8556 26.934 14.0601 27.0158 14.2073 27.1712L14.2482 27.2121C14.5999 27.5392 15.0825 27.9809 15.0907 28.4226C15.0907 28.6107 15.0171 28.7743 14.8535 28.9461L3.41086 40.3642C3.24727 40.5277 3.07551 40.6095 2.88739 40.6014C2.44571 40.5932 2.00404 40.1106 1.67687 39.7589L1.63598 39.7098C1.47239 39.5544 1.39878 39.3908 1.39878 39.2027C1.40696 38.7038 2.01222 38.1558 2.49479 37.7223C2.72381 37.5178 2.92011 37.3379 3.04279 37.1825C3.22273 37.0107 3.28817 36.7817 3.23091 36.5527C3.16548 36.2991 2.94464 36.0783 2.69109 36.0128C2.46207 35.9556 2.23306 36.021 2.06129 36.201C1.97132 36.2828 1.88135 36.3727 1.79138 36.4627C0.597224 37.5914 -0.875026 38.9901 0.654478 40.6995L0.687194 40.7322C1.24338 41.3129 1.93043 42.0409 2.83831 41.9836C2.87921 41.9918 2.92011 42 2.961 42C3.93432 42 6.339 39.5462 8.92361 36.8144C9.80696 35.882 10.5676 35.0722 10.8866 34.8351C13.1195 36.4382 15.2461 36.7244 17.3727 35.7266C19.2621 34.8432 20.9306 33.0765 22.5501 31.3589C23.1963 30.68 23.8588 29.9684 24.5213 29.3468C24.8239 29.0278 24.9793 28.6843 24.9711 28.3326C24.9466 27.5474 24.1941 26.844 23.5316 26.2224ZM23.5398 28.3735C22.8282 29.0033 22.1248 29.7558 21.3887 30.5573C20.0391 32.0214 18.6405 33.5346 17.0701 34.3361C15.3361 35.2195 13.6348 35.0641 11.8845 33.8536L14.0438 31.6943C15.1888 32.1523 16.5302 31.8742 17.4054 30.999L21.7731 26.6068C21.8467 26.5496 21.8794 26.5496 21.953 26.6068L23.5398 28.2099C23.5807 28.2508 23.5807 28.3244 23.5398 28.3735ZM8.6537 23.2861L13.5694 18.3377C13.6512 18.2804 13.6675 18.2804 13.7493 18.3377L15.3361 19.9408C15.3851 19.9899 15.3851 20.0635 15.3361 20.1126L10.9602 24.5129C10.0687 25.4208 9.80696 26.7949 10.3059 27.9646L8.16295 30.0993C6.63345 28.03 6.83792 25.1182 8.6537 23.2861Z" fill="#FF841D"/>
<path d="M34.4345 11.2954C38.8022 7.10769 42.3847 3.57429 42.0003 2.80545C42.0412 1.88939 41.305 1.19416 40.7161 0.637975C40.3317 0.229017 39.7674 0 39.1703 0C38.5732 0 38.017 0.229017 37.6244 0.637975L31.1056 7.15677C26.0509 3.57429 22.6402 7.14041 19.344 10.5838C18.6978 11.2545 18.0353 11.9579 17.3728 12.5714C17.062 12.8985 16.9066 13.2421 16.9229 13.6101C16.9475 14.3871 17.6999 15.0906 18.3706 15.704C18.5997 15.9167 18.8205 16.1211 18.9841 16.3092C19.573 16.89 20.5218 16.89 21.1107 16.3092L25.5111 11.9252C25.8628 11.5817 26.3453 11.4018 26.8361 11.4181C26.0263 12.1379 25.5928 12.8576 25.5438 13.5447C25.5029 14.1009 25.7237 14.6489 26.1899 15.1642C26.9506 16.0393 27.6622 16.4647 28.3738 16.4647C29.069 16.4647 29.7806 16.0557 30.5494 15.2051C30.5412 15.6549 30.3613 16.0802 30.0341 16.3992L25.6419 20.7751C25.3311 21.1022 25.1757 21.4458 25.1839 21.8138C25.2084 22.5908 25.9609 23.2943 26.6316 23.9077C26.8606 24.1203 27.0815 24.3248 27.245 24.5048C27.5395 24.791 27.9239 24.9383 28.3083 24.9383C28.6928 24.9383 29.0772 24.791 29.3716 24.5048L34.3282 19.5727C35.9804 17.9369 36.6429 15.5241 36.054 13.2748C35.9559 12.9067 35.5796 12.6859 35.2034 12.7759C34.8353 12.874 34.6145 13.2502 34.7126 13.6265C35.7596 16.5873 32.7578 19.3519 30.3449 21.5848C29.5925 22.28 28.8891 22.9344 28.3819 23.5151C28.3329 23.5642 28.2593 23.5642 28.2184 23.5151L26.6152 21.9283C26.558 21.8547 26.558 21.822 26.6152 21.7484L31.0075 17.3807C31.8826 16.5055 32.1607 15.156 31.6945 14.0109C31.9235 13.7083 33.0359 12.6368 34.4345 11.2954ZM40.6262 2.87089C40.6262 3.05901 40.5526 3.22259 40.389 3.38617L28.9463 14.8288C28.7991 14.976 28.5946 15.066 28.3819 15.066H28.3738C28.0466 15.0987 27.7113 14.747 27.4495 14.4608C27.3514 14.3544 27.2532 14.2563 27.1714 14.1827C27.0242 14.0436 26.9424 13.8391 26.9424 13.6183C26.9424 13.4056 27.0242 13.2012 27.1714 13.0539L38.6141 1.6113C38.7531 1.46407 38.9576 1.38228 39.1785 1.38228C39.3911 1.38228 39.5956 1.46407 39.7428 1.61947L39.7837 1.66037C40.1354 1.97936 40.618 2.42103 40.6262 2.87089ZM30.1241 8.13827L27.9812 10.2812C26.8115 9.78228 25.4293 10.044 24.5296 10.9355L20.1292 15.3196C20.0801 15.3686 20.0065 15.3686 19.9574 15.3196L18.3543 13.7328C18.297 13.6592 18.297 13.6347 18.3543 13.5529L23.3027 8.6372C25.1348 6.81324 28.0548 6.60876 30.1241 8.13827Z" fill="#FF841D"/>
<path d="M7.86866 15.0333L9.65172 15.7122C9.73351 15.7449 9.81531 15.7613 9.8971 15.7613C9.99525 15.7613 10.0934 15.7367 10.1834 15.704C10.3551 15.6304 10.486 15.4913 10.5514 15.3196C10.6169 15.1478 10.6087 14.9597 10.5351 14.7879C10.4615 14.6162 10.3224 14.4935 10.1507 14.428L8.36759 13.7492C8.1304 13.6592 7.90138 13.6837 7.71326 13.8391C7.50878 14.0027 7.40245 14.289 7.44335 14.5507C7.48424 14.7716 7.63147 14.9433 7.86866 15.0333Z" fill="#FF841D"/>
<path d="M11.9088 12.1461C12.0397 12.2851 12.2032 12.3587 12.375 12.3587C12.4241 12.3587 12.4813 12.3505 12.5304 12.3424C12.784 12.2769 13.0048 12.0643 13.0784 11.8107C13.1439 11.5817 13.0784 11.3527 12.8985 11.1809C12.8658 11.14 12.8003 11.0746 12.6858 10.9519L11.5162 9.74957C11.2463 9.47966 10.8128 9.47148 10.5347 9.74139C10.2648 10.0113 10.2566 10.4448 10.5265 10.7229L11.9088 12.1461Z" fill="#FF841D"/>
<path d="M15.2544 9.74957C15.3198 9.99494 15.4752 10.1667 15.7042 10.2321C15.7697 10.2485 15.8269 10.2567 15.8924 10.2567C16.0887 10.2567 16.2931 10.1749 16.4322 10.0358C16.6039 9.86408 16.653 9.64324 16.5876 9.39787L16.0887 7.51666C16.0396 7.33672 15.9251 7.18949 15.7697 7.09134C15.6061 7.00137 15.4262 6.96865 15.2462 7.01773C15.0663 7.0668 14.919 7.18131 14.8209 7.33672C14.7309 7.5003 14.6982 7.68024 14.7473 7.86018L15.2544 9.74957Z" fill="#FF841D"/>
</g>
<defs>
<clipPath id="clip0_0_772">
<rect width="42.0327" height="42" fill="white"/>
</clipPath>
</defs>
</svg>
