<svg width="50" height="36" viewBox="0 0 50 36" fill="none" xmlns="http://www.w3.org/2000/svg">
<g clip-path="url(#clip0_0_761)">
<path d="M42.3252 17.8205L36.3009 23.8448C36.2524 23.7769 36.1942 23.7187 36.136 23.6605L30.9848 18.5093C30.7035 18.228 30.2379 18.228 29.9565 18.5093C29.6752 18.7906 29.6752 19.2563 29.9565 19.5376L35.1077 24.6888C35.554 25.135 35.554 25.8529 35.1077 26.2991C34.6615 26.7454 33.9436 26.7454 33.4974 26.2991L30.6356 23.4374C30.3543 23.156 29.8886 23.156 29.6073 23.4374C29.326 23.7187 29.326 24.1843 29.6073 24.4657L32.4691 27.3274C32.6825 27.5408 32.7989 27.8222 32.7989 28.1326C32.7989 28.4333 32.6825 28.7243 32.4691 28.9378C32.2557 29.1512 31.9743 29.2676 31.6639 29.2676C31.3632 29.2676 31.0721 29.1512 30.8587 28.9378L27.997 26.076C27.7156 25.7947 27.25 25.7947 26.9687 26.076C26.6873 26.3573 26.6873 26.823 26.9687 27.1043L29.8304 29.9661C30.2767 30.4123 30.2767 31.1302 29.8304 31.5764C29.617 31.7898 29.326 31.9062 29.0253 31.9062C28.7245 31.9062 28.4335 31.7898 28.2201 31.5764L25.3583 28.7146C25.077 28.4333 24.6114 28.4333 24.33 28.7146C24.0487 28.996 24.0487 29.4616 24.33 29.7429L27.1918 32.6047C27.638 33.0509 27.638 33.7688 27.1918 34.215C26.9784 34.4285 26.697 34.5449 26.3866 34.5449C26.0859 34.5449 25.7949 34.4285 25.5814 34.215L23.7286 32.3622C24.3203 31.3824 24.1942 30.0825 23.3405 29.2288L23.292 29.1803C22.7294 28.6176 21.963 28.3751 21.2257 28.443C21.1869 27.8222 20.925 27.2498 20.4788 26.8036C20.1392 26.464 19.7221 26.2409 19.2856 26.1245C19.402 25.8335 19.4602 25.523 19.4602 25.2029C19.4602 24.5142 19.1983 23.8739 18.7132 23.3889C18.2282 22.9038 17.5879 22.6419 16.8991 22.6419C16.5111 22.6419 16.1328 22.7292 15.7932 22.8941C15.6768 22.4867 15.4634 22.0986 15.1433 21.7785C14.1441 20.7793 12.5143 20.7793 11.5152 21.7785L11.2144 22.0792L10.9913 21.8561C10.6421 21.5069 10.4481 21.0315 10.4481 20.5368V18.6354C10.4481 18.4414 10.3704 18.2571 10.2346 18.1213L7.12065 15.0073L7.99373 14.1342C8.27505 13.8529 8.27505 13.3872 7.99373 13.1059C7.7124 12.8246 7.24676 12.8246 6.96543 13.1059L5.79163 14.2797C5.56851 14.5028 5.20957 14.5028 4.98645 14.2797L1.23221 10.5255C0.950883 10.2442 0.48524 10.2442 0.203914 10.5255C-0.0774115 10.8068 -0.0774115 11.2724 0.203914 11.5538L3.95816 15.308C4.35589 15.7058 4.87004 15.8998 5.39389 15.8998C5.5588 15.8998 5.72372 15.8804 5.88864 15.8416L8.99292 18.9458V20.5465C8.99292 21.439 9.34215 22.2733 9.96301 22.8941L10.1861 23.1172L9.94361 23.3598C9.45856 23.8448 9.19664 24.4851 9.19664 25.1738C9.19664 25.8626 9.45856 26.5028 9.94361 26.9879C10.4481 27.4826 11.098 27.7349 11.7577 27.7349C11.7674 27.7349 11.7771 27.7349 11.7868 27.7349C11.7868 27.7446 11.7868 27.7543 11.7868 27.764C11.7868 28.4527 12.0487 29.093 12.5337 29.578C13.0188 30.0631 13.659 30.325 14.3478 30.325C14.3575 30.325 14.3672 30.325 14.3769 30.325C14.3672 30.9944 14.6194 31.6637 15.1239 32.1682C15.6283 32.6629 16.2783 32.9151 16.9379 32.9151C16.9476 32.9151 16.9573 32.9151 16.9671 32.9151C16.9573 33.5845 17.2096 34.2538 17.714 34.7583L17.7625 34.8068C18.2476 35.2918 18.8878 35.5538 19.5766 35.5538C20.2654 35.5538 20.9056 35.2918 21.3907 34.8068L22.7585 33.439L24.5628 35.2433C25.0479 35.7381 25.7076 36 26.3963 36C27.0851 36 27.7447 35.7284 28.2298 35.2433C28.7439 34.7292 28.9962 34.0404 28.9865 33.3614C29.0059 33.3614 29.0156 33.3614 29.035 33.3614C29.7237 33.3614 30.3834 33.0897 30.8684 32.6047C31.3826 32.0906 31.6348 31.4018 31.6251 30.7227C31.6445 30.7227 31.6542 30.7227 31.6736 30.7227C32.3333 30.7227 33.0026 30.4705 33.5071 29.9661C34.0018 29.481 34.2637 28.8214 34.2637 28.1326C34.2637 28.1132 34.2637 28.1035 34.2637 28.0841C34.2831 28.0841 34.2928 28.0841 34.3122 28.0841C34.9719 28.0841 35.6413 27.8319 36.1457 27.3274C36.6987 26.7745 36.9412 26.0372 36.9024 25.3193L43.3729 18.8488C43.6542 18.5675 43.6542 18.1019 43.3729 17.8205C43.0721 17.5392 42.6065 17.5392 42.3252 17.8205ZM10.9719 25.9596C10.7585 25.7462 10.6518 25.4745 10.6518 25.1835C10.6518 24.8925 10.7682 24.6112 10.9719 24.3977L12.5434 22.8262C12.7569 22.6128 13.0382 22.5061 13.3292 22.5061C13.6105 22.5061 13.8919 22.6128 14.1053 22.8262C14.5321 23.253 14.5321 23.9612 14.1053 24.388L12.5337 25.9596C12.1069 26.3864 11.4084 26.3864 10.9719 25.9596ZM14.3478 28.8699C14.0568 28.8699 13.7755 28.7534 13.562 28.5497C13.3486 28.3363 13.2419 28.0647 13.2419 27.7737C13.2419 27.4826 13.3583 27.2013 13.562 26.9879L15.1336 25.4163L16.1134 24.4366C16.3268 24.2231 16.5984 24.1164 16.8894 24.1164C17.1805 24.1164 17.4618 24.2328 17.6655 24.4366C17.8789 24.65 17.9856 24.9216 17.9856 25.2223C17.9856 25.5231 17.8692 25.7947 17.6655 26.0081L15.1336 28.5497C14.9202 28.7534 14.6388 28.8699 14.3478 28.8699ZM16.1619 31.1399C15.735 30.713 15.735 30.0049 16.1619 29.578L17.8983 27.8416C18.1118 27.6281 18.3931 27.5214 18.6841 27.5214C18.9654 27.5214 19.2468 27.6281 19.4602 27.8416C19.6736 28.055 19.7803 28.3266 19.7803 28.6273C19.7803 28.9184 19.6639 29.1997 19.4602 29.4034L17.7237 31.1399C17.2872 31.5764 16.5887 31.5764 16.1619 31.1399ZM20.3624 33.7785C20.1489 33.9919 19.8773 34.0986 19.5863 34.0986C19.2953 34.0986 19.0139 33.9822 18.8102 33.7785L18.7617 33.73C18.3349 33.3032 18.3349 32.595 18.7617 32.1682L20.4982 30.4317L20.7116 30.2086C20.925 29.9952 21.2063 29.8885 21.4974 29.8885C21.7787 29.8885 22.06 29.9952 22.2734 30.2086L22.3219 30.2571C22.7488 30.6839 22.7488 31.3921 22.3219 31.8189L20.3624 33.7785Z" fill="#FF841D"/>
<path d="M49.4554 13.6104C49.1741 13.329 48.7085 13.329 48.4271 13.6104L45.6915 16.3363C45.6527 16.3751 45.5945 16.3751 45.5557 16.3363L35.8936 7.11077C35.8742 7.09137 35.8645 7.07196 35.8645 7.04286C35.8645 7.01376 35.8742 6.99436 35.8936 6.97496L41.6268 1.24173C41.9081 0.960404 41.9081 0.494762 41.6268 0.213436C41.3455 -0.06789 40.8798 -0.06789 40.5985 0.213436L34.8653 5.94666C34.5646 6.24739 34.4093 6.64513 34.4093 7.06226C34.4093 7.40179 34.5257 7.72192 34.7295 7.98385L32.1102 10.5546L29.6365 9.17706C29.3164 8.99274 28.9477 8.90543 28.5791 8.90543H21.5654L21.0318 8.37188C20.5371 7.87714 19.955 7.4988 19.2954 7.24658L17.3552 6.50931L16.453 5.60713C16.9186 4.83106 16.8216 3.80276 16.1523 3.1334L13.2226 0.213436C12.9413 -0.06789 12.4756 -0.06789 12.1943 0.213436C11.913 0.494762 11.913 0.960404 12.1943 1.24173L15.1143 4.1714C15.3374 4.39452 15.3374 4.75345 15.1143 4.97657L6.83941 13.2514C6.55809 13.5328 6.55809 13.9984 6.83941 14.2797C6.98493 14.4252 7.16924 14.4931 7.35356 14.4931C7.53788 14.4931 7.72219 14.4252 7.86771 14.2797L15.4635 6.68393L16.4239 7.64432C16.4918 7.71222 16.5791 7.77043 16.6761 7.80923L18.7618 8.6047C19.208 8.77932 19.6155 9.03154 19.955 9.37107C19.9065 9.40988 19.8677 9.44868 19.8289 9.48749L17.0544 12.2619C16.5015 12.8149 16.2008 13.5425 16.2008 14.3185C16.2008 15.0946 16.5015 15.8319 17.0544 16.3751C17.6268 16.9475 18.3641 17.2288 19.111 17.2288C19.761 17.2288 20.4207 17.0057 20.9639 16.5594L23.0593 14.8327H25.242L27.7351 17.3258C27.8806 17.4713 28.065 17.5392 28.2493 17.5392C28.4336 17.5392 28.6179 17.4713 28.7634 17.3258C29.0447 17.0445 29.0447 16.5788 28.7634 16.2975L26.9591 14.4931C27.027 14.3767 27.0755 14.2506 27.0755 14.1051C27.0755 13.6977 26.7456 13.3775 26.3479 13.3775H22.7877C22.6228 13.3775 22.4578 13.4357 22.322 13.5425L20.0229 15.4341C19.4409 15.9095 18.6066 15.8707 18.073 15.3371C17.8014 15.0655 17.6462 14.6969 17.6462 14.3088C17.6462 13.9208 17.8014 13.5522 18.073 13.2805L20.8475 10.5061C20.9542 10.3994 21.09 10.3412 21.2355 10.3412H28.5597C28.6858 10.3412 28.8022 10.3703 28.9089 10.4285L31.6446 11.9515C32.052 12.1746 32.5662 12.1067 32.896 11.7866L35.7481 8.98304L43.6058 16.4915L42.4902 17.6653C42.2089 17.9467 42.2089 18.4123 42.4902 18.6936C42.6357 18.8391 42.82 18.907 43.0043 18.907C43.1886 18.907 43.373 18.8391 43.5185 18.6936L44.6923 17.5198C44.9639 17.7235 45.2937 17.8205 45.6236 17.8205C46.0213 17.8205 46.419 17.6653 46.7295 17.3646L49.4651 14.629C49.7367 14.3573 49.7367 13.8917 49.4554 13.6104Z" fill="#FF841D"/>
</g>
<defs>
<clipPath id="clip0_0_761">
<rect width="49.6686" height="36" fill="white"/>
</clipPath>
</defs>
</svg>
