<svg width="46" height="46" viewBox="0 0 46 46" fill="none" xmlns="http://www.w3.org/2000/svg">
<path d="M12.4838 43.2651H0.673828C0.301605 43.2651 0 42.9634 0 42.5913V16.1224C0 15.7503 0.301605 15.4486 0.673828 15.4486C1.04605 15.4486 1.34766 15.7503 1.34766 16.1224V41.9175H12.4838C12.856 41.9175 13.1576 42.2192 13.1576 42.5913C13.1576 42.9634 12.856 43.2651 12.4838 43.2651Z" fill="#FF841D"/>
<path d="M8.13256 29.7735C7.81487 29.5104 7.49718 29.5104 7.17959 29.7735L3.61728 33.3359C3.26374 33.9316 3.42259 34.315 4.09381 34.4862H5.58701V39.8623C5.58701 40.2344 5.88862 40.5361 6.26084 40.5361H9.05157C9.4238 40.5361 9.7254 40.2344 9.7254 39.8623V34.4862H11.2186C11.8897 34.315 12.0486 33.9316 11.6951 33.3359L8.13256 29.7735ZM9.05139 33.1386C8.67917 33.1386 8.37756 33.4403 8.37756 33.8125V39.1885H6.93458V33.8125C6.93458 33.4403 6.63298 33.1386 6.26075 33.1386H5.72043L7.65603 31.203L9.59171 33.1386H9.05139Z" fill="#FF841D"/>
<path d="M45.5431 5.61786L37.1706 2.77071C37.0299 2.72291 36.8774 2.72291 36.7367 2.77071L34.3271 3.59009C33.9749 3.70985 33.7863 4.09267 33.9061 4.44495C34.026 4.79732 34.4085 4.98572 34.7611 4.86596L36.9536 4.12034L44.6523 6.73839V14.8304C44.6523 19.3413 41.6385 23.339 36.9536 25.0742C32.2686 23.3391 29.255 19.3414 29.255 14.8304V6.73839L31.9813 5.8112C32.3337 5.69135 32.5222 5.30862 32.4023 4.95625C32.2825 4.60397 31.8997 4.41566 31.5474 4.53524L28.3642 5.61786C28.0911 5.71076 27.9074 5.96726 27.9074 6.25584V8.42826H0.673828C0.301605 8.42826 0 8.72996 0 9.10209V13.1855C0 13.5576 0.301605 13.8593 0.673828 13.8593C1.04605 13.8593 1.34766 13.5576 1.34766 13.1855V9.77592H13.2787V18.3448C13.3738 18.8969 13.692 19.101 14.2335 18.9572L17.4185 17.496L20.6035 18.9572C21.0109 19.1441 21.5583 18.8435 21.5583 18.3448V9.77592H27.9073V14.8305C27.9073 18.8839 30.1375 22.6136 33.4893 24.8266V41.9175H15.4208C15.0486 41.9175 14.747 42.2192 14.747 42.5913C14.747 42.9635 15.0486 43.2652 15.4208 43.2652H34.1631C34.5353 43.2652 34.8369 42.9635 34.8369 42.5913V25.6142C35.4399 25.9235 36.0722 26.1953 36.7304 26.4264C36.8792 26.4771 37.028 26.4771 37.1768 26.4264C42.1471 24.6814 46 20.2518 46 14.8305V6.25584C46 5.96726 45.8163 5.71076 45.5431 5.61786ZM20.2106 17.2943L17.6995 16.1422C17.5212 16.0604 17.3159 16.0604 17.1376 16.1422L14.6264 17.2943V9.7761H20.2106V17.2943Z" fill="#FF841D"/>
<path d="M30.72 8.26968V14.8311C30.72 18.5138 32.9475 21.7103 36.6785 23.3816C36.8621 23.4601 37.0459 23.4601 37.2295 23.3816C40.9605 21.7102 43.1879 18.5138 43.1879 14.8311V8.26968C43.1879 7.98119 43.0042 7.72459 42.731 7.6317L37.1708 5.7412C37.0303 5.69332 36.8776 5.69341 36.7371 5.7412L31.1769 7.6317C30.9037 7.72459 30.72 7.9811 30.72 8.26968ZM32.0676 8.75223L36.9541 7.09084L41.8404 8.75223V14.831C41.8404 17.8769 40.0201 20.5461 36.9541 22.0236C33.888 20.5461 32.0676 17.8769 32.0676 14.831V8.75223Z" fill="#FF841D"/>
<path d="M22.3262 39.4561C22.3262 39.8283 22.6278 40.13 23 40.13H31.3723C31.7445 40.13 32.0461 39.8283 32.0461 39.4561V36.9536C32.0461 36.5815 31.7445 36.2798 31.3723 36.2798H23C22.6278 36.2798 22.3262 36.5815 22.3262 36.9536V39.4561ZM23.6738 37.6274H30.6984V38.7823H23.6738V37.6274Z" fill="#FF841D"/>
<path d="M31.3716 34.8367H31.3723C31.7441 34.8367 32.0457 34.5355 32.0461 34.1635C32.0465 33.7914 31.745 33.4894 31.373 33.4891L23.0007 33.4807C23.0004 33.4807 23.0003 33.4807 23 33.4807C22.6281 33.4807 22.3265 33.782 22.3262 34.1539C22.3258 34.526 22.6272 34.828 22.9993 34.8284L31.3716 34.8367Z" fill="#FF841D"/>
<path d="M35.7163 15.933C35.9803 16.1966 36.4085 16.1956 36.6712 15.9304L39.3741 13.2022C39.651 12.9226 39.681 12.5783 39.3696 12.2492C39.1544 12.0218 38.7526 11.9643 38.4167 12.2537L36.19 14.5014L35.4883 13.8007C34.6198 13.1323 33.901 14.0936 34.5359 14.7543L35.7163 15.933Z" fill="#FF841D"/>
</svg>
