<svg width="40" height="40" viewBox="0 0 40 40" fill="none" xmlns="http://www.w3.org/2000/svg">
<g clip-path="url(#clip0_0_765)">
<path d="M22.7549 15.4708C22.9028 15.0817 22.8561 14.6459 22.6149 14.3035C22.397 13.9844 22.0779 13.7899 21.7043 13.7587C21.3152 13.7198 20.9106 13.8677 20.5993 14.1634C19.6421 15.0739 18.6771 15.9922 17.7433 16.8716C17.1752 17.4086 16.6071 17.9455 16.039 18.4825C15.7277 18.7782 15.5721 19.1829 15.6188 19.5875C15.6654 19.9922 15.8911 20.3424 16.2569 20.5603C16.8717 20.9261 17.4942 21.284 18.0935 21.6265L18.3814 21.7899C18.2802 22.0311 18.1791 22.2646 18.0857 22.4903C17.7977 23.1751 17.5176 23.821 17.2452 24.5292C17.004 25.1518 17.2763 25.8366 17.8833 26.1245C18.0701 26.2179 18.2569 26.2568 18.4437 26.2568C18.7783 26.2568 19.0973 26.1167 19.3931 25.8366C20.2724 25.0039 21.1752 24.1479 22.0468 23.323C22.6849 22.716 23.323 22.1167 23.9612 21.5097C24.2724 21.214 24.4281 20.8093 24.3814 20.3969C24.3347 19.9844 24.0857 19.6265 23.7043 19.4008C23.2141 19.1206 22.716 18.8327 22.2258 18.5447L21.6187 18.1946L21.6421 18.1323C22.0156 17.2763 22.4047 16.3735 22.7549 15.4708ZM19.4865 22.5681C19.5876 22.3269 19.6888 22.0856 19.7977 21.8366C19.93 21.5331 19.8756 21.1206 19.4709 20.8872C19.2296 20.7471 18.9806 20.607 18.7394 20.4669C18.1479 20.1323 17.5409 19.7821 16.9495 19.4319C17.4009 19.0039 17.9456 18.4825 18.5059 17.9533C19.6888 16.8327 21.004 15.5798 21.4398 15.1829C21.1207 15.9844 20.7783 16.7938 20.4514 17.572C20.3658 17.7665 20.288 17.9611 20.2024 18.1556C20.0468 18.5214 20.1791 18.9027 20.5293 19.1051C20.8717 19.3074 21.2141 19.5019 21.5565 19.7043C22.0545 19.9922 22.5448 20.2802 23.0429 20.5603C22.7705 20.8171 22.4047 21.1673 21.9845 21.5642C20.7938 22.7004 19.0818 24.3346 18.5526 24.8093C18.8561 24.0545 19.1596 23.3307 19.4865 22.5681Z" fill="#FF841D"/>
<path d="M10.148 9.68094C10.6538 10.0701 11.2919 10.2101 11.8989 10.0545L20.5137 7.96888C20.6694 8.18678 20.8639 8.37355 21.0818 8.51363L25.4709 11.502C25.5799 11.5798 25.7122 11.6187 25.8445 11.6187C25.8834 11.6187 25.9301 11.6187 25.969 11.6109C26.1402 11.5798 26.2958 11.4786 26.397 11.3308C26.4982 11.1829 26.5293 11.0117 26.4982 10.8327C26.467 10.6615 26.3659 10.5058 26.218 10.4125L21.8133 7.41635C21.6421 7.29962 21.5487 7.18289 21.502 7.02725C21.4787 6.94943 21.4476 6.74709 21.5876 6.52919C21.5876 6.52919 21.5954 6.52141 21.6032 6.51363C21.8367 6.22569 22.1869 6.16343 22.6849 6.33464L28.8017 8.16343C28.9729 8.21791 29.1519 8.19456 29.3075 8.10896C29.4631 8.02336 29.5799 7.88328 29.6266 7.71985C29.681 7.54865 29.6577 7.36966 29.5721 7.21402C29.4865 7.05838 29.3464 6.94164 29.183 6.89495L23.1052 5.07394C22.2024 4.69262 21.1596 4.94164 20.576 5.68094C20.3425 5.96888 20.2024 6.32686 20.1713 6.69262L11.5799 8.77044C11.362 8.82491 11.1285 8.77822 10.9495 8.63814C10.7705 8.49806 10.6616 8.28795 10.6616 8.06227C10.6616 7.78211 10.8172 7.53308 11.0662 7.40079L22.755 1.50196C23.1908 1.28406 23.6966 1.26071 24.148 1.44748L34.0157 5.50974C34.3114 5.62647 34.6071 5.72764 34.9184 5.78989C35.541 5.92219 36.039 5.95332 36.4592 5.89106L39.4476 5.37744C39.6188 5.34631 39.7744 5.25293 39.8756 5.10507C39.9768 4.95721 40.0157 4.786 39.9845 4.6148C39.9223 4.25682 39.5799 4.01557 39.2219 4.07783L36.2647 4.58367C35.9145 4.60701 35.5643 4.57589 35.2219 4.50585C34.9651 4.45137 34.7394 4.38133 34.5137 4.28795L24.646 0.225691C23.8445 -0.108939 22.934 -0.0700285 22.1557 0.319077L10.467 6.21791C9.76664 6.5681 9.33862 7.27628 9.33862 8.05449C9.33862 8.69262 9.63434 9.28406 10.148 9.68094Z" fill="#FF841D"/>
<path d="M15.0116 26.5992C14.9182 26.7471 14.8871 26.9261 14.926 27.0973C14.9649 27.2685 15.066 27.4164 15.2139 27.5097C16.638 28.4202 18.2956 28.9027 19.9999 28.9027C24.9104 28.9027 28.9026 24.9105 28.9026 20C28.9026 15.0895 24.9104 11.0973 19.9999 11.0973C15.0894 11.0973 11.0972 15.0895 11.0972 20C11.0972 22.1634 11.8832 24.2413 13.2995 25.8677C13.4162 26 13.5797 26.0778 13.7509 26.0934C13.9299 26.1012 14.1011 26.0467 14.2334 25.93C14.3656 25.8132 14.4435 25.6498 14.459 25.4786C14.4668 25.2996 14.4123 25.1284 14.2956 24.9961C13.0816 23.6187 12.4201 21.8444 12.4201 20C12.4201 15.821 15.8209 12.4202 19.9999 12.4202C24.1789 12.4202 27.5797 15.821 27.5797 20C27.5797 24.179 24.1789 27.5798 19.9999 27.5798C18.5524 27.5798 17.1439 27.1673 15.9299 26.3969C15.6186 26.1946 15.2139 26.2879 15.0116 26.5992Z" fill="#FF841D"/>
<path d="M39.9847 13.9533C39.9147 13.5954 39.5645 13.3619 39.2065 13.4319L35.3388 14.179C33.5567 14.5214 31.6812 14.1323 30.1793 13.1129L27.8914 11.5564C27.5879 11.3541 27.1754 11.4319 26.9731 11.7277C26.7707 12.0312 26.8486 12.4436 27.1443 12.6459L29.4322 14.2024C30.7941 15.1284 32.4205 15.6187 34.0548 15.6187C34.5684 15.6187 35.0742 15.572 35.5801 15.4708L39.4478 14.7238C39.8213 14.6615 40.0548 14.3113 39.9847 13.9533Z" fill="#FF841D"/>
<path d="M29.8599 30.3191C29.3541 29.93 28.716 29.7899 28.1012 29.9455L19.4864 32.0311C19.3308 31.8132 19.1362 31.6265 18.9183 31.4864L10.5603 25.7977C8.77045 24.5837 6.5292 24.1167 4.40469 24.5292L0.536987 25.2763C0.17901 25.3463 -0.0544529 25.6965 0.015586 26.0545C0.0856249 26.4125 0.428037 26.6459 0.793796 26.5759L4.6615 25.8288C6.4436 25.4864 8.31909 25.8755 9.82103 26.895L10.2646 27.1985C18.1946 32.5992 18.2101 32.607 18.2101 32.607C18.3658 32.7004 18.4825 32.8561 18.5136 33.0195C18.5448 33.1673 18.5136 33.3152 18.4203 33.4553C18.1245 33.8677 17.6031 33.7666 17.3074 33.6654L11.1907 31.8366C11.0195 31.7821 10.8405 31.8055 10.6848 31.8911C10.5292 31.9767 10.4125 32.1167 10.3658 32.2802C10.2646 32.6304 10.4592 32.9961 10.8094 33.1051C11.642 33.3541 12.4747 33.6031 13.3074 33.8522L16.8872 34.9261C17.7821 35.3074 18.8171 35.0584 19.4164 34.3191C19.6498 34.0311 19.7899 33.681 19.821 33.3074L28.4125 31.2296C28.6304 31.1751 28.8638 31.2218 29.0428 31.3619C29.2218 31.502 29.3308 31.7121 29.3308 31.9455C29.3308 32.2257 29.1751 32.4747 28.9261 32.607L17.2374 38.5059C16.8016 38.7238 16.2957 38.7471 15.8444 38.5603L5.98446 34.4903C5.72765 34.3813 5.45527 34.3113 5.19847 34.2413L5.08952 34.2101C4.59924 34.0778 4.0078 34.0389 3.54088 34.109L0.552551 34.6226C0.381345 34.6537 0.225703 34.7471 0.124535 34.895C0.0233681 35.0428 -0.0155424 35.214 0.015586 35.3852C0.0778428 35.7432 0.420255 35.9845 0.778232 35.9222L3.73543 35.4164C4.10119 35.393 4.45917 35.4241 4.81714 35.502C5.04282 35.5487 5.2685 35.6187 5.4864 35.7121L15.3541 39.7743C15.7199 39.9222 16.109 40 16.4981 40C16.965 40 17.4241 39.8911 17.8444 39.681L29.5331 33.7821C30.2335 33.4319 30.6615 32.7238 30.6615 31.9455C30.6615 31.3074 30.3736 30.716 29.8599 30.3191Z" fill="#FF841D"/>
</g>
<defs>
<clipPath id="clip0_0_765">
<rect width="40" height="40" fill="white"/>
</clipPath>
</defs>
</svg>
