<svg width="44" height="44" viewBox="0 0 44 44" fill="none" xmlns="http://www.w3.org/2000/svg">
<path d="M43.1746 37.6128L38.6874 30.1349L39.0892 26.699H39.6606C40.6734 26.699 41.4972 25.8752 41.4972 24.8625V22.7587C41.4972 21.7462 40.6734 20.9224 39.6606 20.9224H37.1409V18.5132C37.1409 18.5068 37.1412 18.5001 37.1412 18.4933C37.1412 18.3419 37.0889 18.2026 37.0012 18.0925C37.0012 18.0922 37.0009 18.0919 37.0006 18.0915L34.7753 15.2949V12.9457C34.7753 12.1709 34.1452 11.5405 33.3704 11.5405H30.7792C30.7627 11.5072 30.7459 11.475 30.7291 11.4435C30.4099 10.8429 29.53 10.0742 28.1134 9.15805C27.82 8.96872 27.6448 8.64545 27.6448 8.29297V6.58496C27.9207 6.448 28.1111 6.16333 28.1111 5.83469V2.24847C28.1111 1.00876 27.1026 0 25.8626 0H23.414C22.174 0 21.1656 1.00876 21.1656 2.24847V5.83469C21.1656 6.16333 21.3556 6.448 21.6319 6.58496V8.29297C21.6319 8.64545 21.4563 8.96872 21.1626 9.15839C20.9286 9.30945 20.6664 9.48502 20.3995 9.67468C20.4015 9.62466 20.4029 9.57465 20.4029 9.52429C20.4029 7.62897 18.8607 6.08679 16.9654 6.08679C15.0697 6.08679 13.5279 7.62897 13.5279 9.52429C13.5279 9.76666 13.5541 10.011 13.6054 10.2484C13.6826 10.6143 13.7548 10.9547 13.8219 11.2719C13.0378 10.9943 12.1314 11.1195 11.4409 11.6825C10.932 12.0981 10.6151 12.6869 10.5489 13.3408C10.4825 13.9947 10.6748 14.6352 11.0881 15.1411C11.1965 15.2754 11.322 15.3999 11.4597 15.51L13.3785 17.0562C12.2982 18.0096 11.5993 19.3853 11.5429 20.9224H8.46663L8.33235 20.67C8.35249 20.6596 8.37263 20.6488 8.39244 20.6384C10.4533 19.5421 12.1723 17.7417 11.4701 16.4214C10.7678 15.1012 8.31422 15.5201 6.2534 16.6165C6.23326 16.6269 6.21312 16.6376 6.19331 16.6487L5.32689 15.0199C5.34703 15.0095 5.36717 14.9988 5.38731 14.9884C6.4142 14.4422 7.30043 13.7594 7.88319 13.0655C8.84328 11.9232 8.65965 11.138 8.46461 10.7714C8.26958 10.4048 7.72105 9.81332 6.23695 9.97076C5.33629 10.0664 4.27449 10.4199 3.24794 10.9661C3.2278 10.9768 3.20766 10.9876 3.18785 10.9983L2.53828 9.77774C2.17607 9.09695 1.99245 8.36279 1.99245 7.59607C1.99245 5.86758 2.9391 4.2905 4.46349 3.4798C5.56154 2.89569 6.82173 2.77417 8.01109 3.13739C9.20045 3.50095 10.1773 4.30594 10.7614 5.40399L11.8716 7.49234C12.0387 7.80655 12.4288 7.92606 12.7434 7.75854C13.0576 7.59171 13.1771 7.20129 13.0099 6.88708L11.8994 4.79874C10.3599 1.90405 6.75258 0.802307 3.8579 2.3418C1.91222 3.37674 0.703384 5.38989 0.703384 7.59607C0.703384 8.56253 0.944412 9.52631 1.40028 10.383L7.00636 20.9224H4.38158C3.36879 20.9224 2.545 21.7462 2.545 22.7587V24.8625C2.545 25.8752 3.36879 26.699 4.38158 26.699H4.95259L5.35475 30.1349L0.867538 37.6128C0.612076 38.0384 0.537552 38.5383 0.65773 39.02C0.778244 39.5014 1.07903 39.9076 1.50468 40.163C1.71986 40.2919 1.95384 40.3752 2.20058 40.4101C2.28853 40.4225 2.37581 40.4286 2.46275 40.4286C3.1093 40.4286 3.71556 40.0915 4.05528 39.5259L6.06206 36.1817L6.20674 37.4234C6.24535 37.7514 6.52364 37.9931 6.84624 37.9931C6.87108 37.9931 6.89659 37.9918 6.92177 37.9887C7.27525 37.9474 7.52837 37.6272 7.48708 37.2737L7.14836 34.3713L11.7524 26.699H32.2898L36.8938 34.3713L36.0848 41.2866C35.9901 42.0986 35.3023 42.7109 34.4845 42.7109H9.5573C8.73955 42.7109 8.05171 42.0986 7.95705 41.2859L7.78685 39.8327C7.74556 39.4792 7.42531 39.2261 7.07182 39.2677C6.71834 39.309 6.46523 39.6293 6.50685 39.9828L6.67671 41.4353C6.84691 42.8976 8.08562 44 9.55763 44H34.4845C35.9566 44 37.1953 42.8976 37.3651 41.4356L37.9798 36.181L39.9869 39.5255C40.52 40.4135 41.663 40.6874 42.5375 40.163C43.4184 39.6343 43.7034 38.4936 43.1746 37.6128ZM6.85866 17.7545C8.93459 16.6501 10.2364 16.8478 10.3321 17.0267C10.4271 17.2056 9.86311 18.396 7.78719 19.5001C7.76738 19.5108 7.74724 19.5216 7.7271 19.532L6.79857 17.7864C6.81871 17.7756 6.83852 17.7649 6.85866 17.7545ZM3.8532 12.1041C4.72499 11.6405 5.64345 11.33 6.37325 11.2528C7.01408 11.185 7.29607 11.3196 7.32661 11.3766C7.35683 11.4337 7.31117 11.7429 6.89659 12.2364C6.42427 12.7983 5.65385 13.3864 4.78172 13.85C4.76192 13.8608 4.74178 13.8712 4.72163 13.8819L3.79344 12.1363C3.81325 12.1256 3.83305 12.1148 3.8532 12.1041ZM37.6015 28.3251L36.6256 26.699H37.7915L37.6015 28.3251ZM24.5329 20.9224V18.7179L26.5652 16.164H33.8199L35.1603 17.8488H32.2401C31.8839 17.8488 31.5956 18.1375 31.5956 18.4933C31.5956 18.8492 31.8839 19.1379 32.2401 19.1379H35.8518V20.9224H24.5329ZM33.4865 12.9453V14.8749H26.8989V12.9453C26.8989 12.8816 26.9509 12.8295 27.0147 12.8295H30.3394C30.3451 12.8295 30.3505 12.8299 30.3562 12.8299C30.3619 12.8299 30.3676 12.8295 30.3733 12.8295H33.3704C33.4345 12.8295 33.4865 12.8816 33.4865 12.9453ZM23.414 1.28906H25.8626C26.3916 1.28906 26.822 1.71942 26.822 2.24847V5.38217H22.4546V2.24847C22.4546 1.71942 22.885 1.28906 23.414 1.28906ZM21.8618 10.2413C22.5248 9.81366 22.9209 9.08521 22.9209 8.29297V6.67157H26.3557V8.29297C26.3557 9.08521 26.7518 9.81366 27.4142 10.241C28.3054 10.8174 28.8372 11.2437 29.1534 11.5405H27.0147C26.2399 11.5405 25.6098 12.1706 25.6098 12.9453V15.2945L23.3842 18.0915C23.2932 18.2057 23.2439 18.347 23.2439 18.4927V20.9224H22.3878C22.3311 19.3853 21.6325 18.0096 20.5526 17.0562C20.7691 16.8817 21.0232 16.6772 21.3304 16.4295L22.4701 15.5114C22.606 15.4026 22.7309 15.2787 22.8407 15.1441C23.2566 14.6349 23.449 13.9944 23.3825 13.3405C23.316 12.6865 22.9991 12.0977 22.4892 11.6821C21.98 11.2669 21.3395 11.0749 20.6862 11.1413C20.6483 11.1454 20.6103 11.1501 20.5731 11.1554C20.9256 10.8745 21.3626 10.5639 21.8618 10.2413ZM19.6224 13.5781C19.7996 13.327 19.9611 12.5106 20.8165 12.4237C21.1276 12.3921 21.4324 12.4834 21.6748 12.6812C21.9175 12.8789 22.0686 13.1595 22.1001 13.4707C22.1408 13.8715 21.9756 14.2562 21.6631 14.5063L20.5217 15.4258C20.0585 15.7991 19.7167 16.0747 19.4411 16.2966C19.3243 16.2365 19.2048 16.1804 19.0833 16.1287L19.6224 13.5781ZM16.9654 7.37585C18.15 7.37585 19.1138 8.33997 19.1138 9.52429C19.1138 9.67804 19.0977 9.83078 19.0651 9.98151L18.8147 11.1658C18.8134 11.1722 18.8117 11.1786 18.8107 11.185L17.8419 15.7689C17.5565 15.7225 17.2638 15.6984 16.9654 15.6984C16.6673 15.6984 16.3746 15.7225 16.0896 15.7689L16.0815 15.7313C15.8576 14.6705 15.6176 13.5331 14.866 9.97882C14.8334 9.82809 14.8169 9.67535 14.8169 9.52463C14.8169 8.33997 15.7807 7.37585 16.9654 7.37585ZM12.0894 14.3291C11.6809 13.8289 11.7558 13.0894 12.2559 12.6812C12.8243 12.2179 13.694 12.3807 14.0415 13.0598L14.31 13.5815C14.5521 14.7272 14.689 15.3754 14.82 15.9971L14.8478 16.1284C14.7263 16.1801 14.6071 16.2361 14.49 16.2962C12.1428 14.3949 12.222 14.4932 12.0894 14.3291ZM16.9654 16.9874C19.1789 16.9874 20.9917 18.7347 21.0974 20.9224H12.8333C12.9391 18.7347 14.7518 16.9874 16.9654 16.9874ZM6.25038 26.699H7.41658L6.44072 28.3251L6.25038 26.699ZM2.94984 38.8622C2.83168 39.0593 2.60844 39.1657 2.38118 39.1335H2.38084C2.30598 39.1227 2.23415 39.0972 2.16801 39.0576C2.03743 38.9794 1.94545 38.8548 1.90852 38.7071C1.8716 38.5594 1.89442 38.4063 1.97264 38.2758L6.56996 30.6146C6.57063 30.6142 6.57097 30.6136 6.5713 30.6129L9.09572 26.4063C9.10445 26.3925 9.11317 26.3784 9.1209 26.364L10.5268 24.0212C10.605 23.8906 10.7295 23.7986 10.8772 23.7617C10.9232 23.75 10.9699 23.7443 11.0162 23.7443C11.1183 23.7443 11.2186 23.7721 11.3086 23.8258C11.5778 23.9876 11.6658 24.3381 11.504 24.6077L10.845 25.7057C10.8376 25.7171 10.8309 25.7285 10.8242 25.7403L2.94984 38.8622ZM12.5258 25.41L12.6094 25.271C12.8649 24.8453 12.9391 24.3455 12.8189 23.8638C12.6984 23.3824 12.3976 22.9762 11.9719 22.7207C11.5463 22.4653 11.0464 22.3907 10.5647 22.5113C10.083 22.6318 9.67714 22.9326 9.42168 23.3582L8.19002 25.41H4.38158C4.07979 25.41 3.83406 25.1646 3.83406 24.8625V22.7587C3.83406 22.4569 4.07979 22.2115 4.38158 22.2115H39.6606C39.9624 22.2115 40.2081 22.4569 40.2081 22.7587V24.8625C40.2081 25.1646 39.9624 25.41 39.6606 25.41H35.8522L34.6208 23.3582C34.3654 22.9322 33.9592 22.6314 33.4775 22.5113C32.9957 22.3907 32.4962 22.4653 32.0702 22.7207C31.6446 22.9762 31.3438 23.3824 31.2236 23.8638C31.1031 24.3455 31.1776 24.8453 31.4331 25.271L31.5163 25.41H12.5258ZM41.661 39.1335C41.6486 39.1314 41.2843 39.1825 41.0923 38.8622C40.6099 38.0586 32.9924 25.365 32.5382 24.608C32.3764 24.3384 32.464 23.9876 32.7336 23.8262C33.0035 23.664 33.3533 23.7513 33.5154 24.0215C33.9911 24.8145 37.0079 29.8415 37.4692 30.6102C37.4702 30.6119 37.4712 30.6136 37.4722 30.6152L42.0692 38.2761C42.2814 38.6289 42.0591 39.0771 41.661 39.1335Z" fill="#FF841D"/>
<path d="M15.364 32.327V30.1943C15.364 29.2453 14.5919 28.4729 13.6429 28.4729C12.6936 28.4729 11.9215 29.2453 11.9215 30.1943V32.327C11.9215 33.276 12.6936 34.0484 13.6429 34.0484C14.5919 34.0484 15.364 33.276 15.364 32.327ZM13.2106 32.327V30.1943C13.2106 29.956 13.4046 29.762 13.6429 29.762C13.8813 29.762 14.0753 29.956 14.0753 30.1943V32.327C14.0753 32.5653 13.8813 32.7594 13.6429 32.7594C13.4046 32.7594 13.2106 32.5653 13.2106 32.327Z" fill="#FF841D"/>
<path d="M19.5531 39.2942V37.1619C19.5531 36.2125 18.781 35.4404 17.832 35.4404C16.8827 35.4404 16.1106 36.2125 16.1106 37.1619V39.2942C16.1106 40.2435 16.8827 41.0156 17.832 41.0156C18.781 41.0156 19.5531 40.2435 19.5531 39.2942ZM17.3997 39.2942V37.1619C17.3997 36.9235 17.5934 36.7295 17.832 36.7295C18.0704 36.7295 18.2641 36.9235 18.2641 37.1619V39.2942C18.2641 39.5325 18.0704 39.7266 17.832 39.7266C17.5934 39.7266 17.3997 39.5325 17.3997 39.2942Z" fill="#FF841D"/>
<path d="M23.7422 32.327V30.1943C23.7422 29.2453 22.9701 28.4729 22.0211 28.4729C21.0718 28.4729 20.2997 29.2453 20.2997 30.1943V32.327C20.2997 33.276 21.0718 34.0484 22.0211 34.0484C22.9701 34.0484 23.7422 33.276 23.7422 32.327ZM21.5887 32.327V30.1943C21.5887 29.956 21.7824 29.762 22.0211 29.762C22.2595 29.762 22.4532 29.956 22.4532 30.1943V32.327C22.4532 32.5653 22.2595 32.7594 22.0211 32.7594C21.7824 32.7594 21.5887 32.5653 21.5887 32.327Z" fill="#FF841D"/>
<path d="M27.9314 39.2942V37.1619C27.9314 36.2125 27.1593 35.4404 26.21 35.4404C25.261 35.4404 24.4885 36.2125 24.4885 37.1619V39.2942C24.4885 40.2435 25.261 41.0156 26.21 41.0156C27.1593 41.0156 27.9314 40.2435 27.9314 39.2942ZM25.7779 39.2942V37.1619C25.7779 36.9235 25.9716 36.7295 26.21 36.7295C26.4486 36.7295 26.6423 36.9235 26.6423 37.1619V39.2942C26.6423 39.5325 26.4486 39.7266 26.21 39.7266C25.9716 39.7266 25.7779 39.5325 25.7779 39.2942Z" fill="#FF841D"/>
<path d="M32.1205 32.327V30.1943C32.1205 29.2453 31.3484 28.4729 30.399 28.4729C29.45 28.4729 28.6776 29.2453 28.6776 30.1943V32.327C28.6776 33.276 29.45 34.0484 30.399 34.0484C31.3484 34.0484 32.1205 33.276 32.1205 32.327ZM29.9667 32.327V30.1943C29.9667 29.956 30.1607 29.762 30.399 29.762C30.6374 29.762 30.8314 29.956 30.8314 30.1943V32.327C30.8314 32.5653 30.6374 32.7594 30.399 32.7594C30.1607 32.7594 29.9667 32.5653 29.9667 32.327Z" fill="#FF841D"/>
</svg>
