<svg width="25" height="15" viewBox="0 0 25 15" fill="none" xmlns="http://www.w3.org/2000/svg">
<g clip-path="url(#clip0_0_2754)">
<path d="M1.83487 2.1759H24.0687C24.5432 2.1759 24.9136 1.79395 24.9136 1.33099C24.9136 0.856454 24.5316 0.486084 24.0687 0.486084H1.84645C1.37191 0.486084 1.00154 0.868028 1.00154 1.33099C0.989964 1.79395 1.37191 2.1759 1.83487 2.1759Z" fill="white"/>
<path d="M1.83476 8.40276H13.2005C13.675 8.40276 14.0454 8.02082 14.0454 7.55786C14.0454 7.08332 13.6635 6.71295 13.2005 6.71295H1.83476C1.36022 6.71295 0.989851 7.0949 0.989851 7.55786C0.978277 8.02082 1.36022 8.40276 1.83476 8.40276Z" fill="white"/>
<path d="M1.83473 14.6528H24.0569C24.5315 14.6528 24.9019 14.2708 24.9019 13.8079C24.9019 13.3333 24.5199 12.963 24.0569 12.963H1.83473C1.36019 12.963 0.978247 13.3449 0.978247 13.8079C0.978247 14.2708 1.36019 14.6528 1.83473 14.6528Z" fill="white"/>
</g>
<defs>
<clipPath id="clip0_0_2754">
<rect width="23.9352" height="15" fill="white" transform="matrix(-1 0 0 1 24.9136 0)"/>
</clipPath>
</defs>
</svg>
