<svg width="44" height="44" viewBox="0 0 44 44" fill="none" xmlns="http://www.w3.org/2000/svg">
<path d="M23.1893 30.7311H20.8107C20.4547 30.7311 20.1662 31.0196 20.1662 31.3757C20.1662 31.7317 20.4547 32.0202 20.8107 32.0202H23.1893C23.5453 32.0202 23.8338 31.7317 23.8338 31.3757C23.8338 31.0196 23.5452 30.7311 23.1893 30.7311ZM17.37 24.1042H9.66797C9.31193 24.1042 9.02344 24.3926 9.02344 24.7487C9.02344 25.1047 9.31193 25.3932 9.66797 25.3932H17.37C17.7261 25.3932 18.0146 25.1047 18.0146 24.7487C18.0146 24.3926 17.7261 24.1042 17.37 24.1042ZM40.7773 2.14575H3.22266C1.44564 2.14575 0 3.59139 0 5.36841V31.5574C0 33.3344 1.44564 34.7801 3.22266 34.7801H16.1088L14.0005 40.5651H13.1626C12.8066 40.5651 12.5181 40.8535 12.5181 41.2096C12.5181 41.5656 12.8066 41.8541 13.1626 41.8541H30.8376C31.1936 41.8541 31.4821 41.5656 31.4821 41.2096C31.4821 40.8535 31.1936 40.5651 30.8376 40.5651H29.9997L27.8914 34.7801H40.7773C42.5544 34.7801 44 33.3344 44 31.5574V5.36841C44 3.59148 42.5544 2.14575 40.7773 2.14575ZM28.6275 40.5651H15.3725L17.4808 34.7802H26.5191L28.6275 40.5651ZM42.7109 31.5574C42.7109 32.6236 41.8435 33.491 40.7773 33.491H3.22266C2.15652 33.491 1.28906 32.6236 1.28906 31.5574V29.2604H36.1612L38.0697 31.1689C38.3051 31.4043 38.6181 31.534 38.9509 31.534C39.2838 31.534 39.5968 31.4043 39.8321 31.169L40.8043 30.1968C41.0613 29.9398 41.1809 29.5977 41.166 29.2604H42.7109V31.5574ZM34.2387 15.0035C34.2387 12.9315 32.553 11.2458 30.4809 11.2458C28.4088 11.2458 26.7231 12.9315 26.7231 15.0035C26.7231 16.2227 27.3071 17.3076 28.2096 17.9946C26.9241 18.6171 25.9173 19.7507 25.4765 21.1434C25.0033 20.7906 24.6964 20.2267 24.6964 19.5924V11.8903C24.6964 10.8241 25.5638 9.9567 26.63 9.9567H34.332C35.3982 9.9567 36.2656 10.8241 36.2656 11.8903V19.5924C36.2656 19.9004 36.1941 20.1977 36.0572 20.4667H35.2199C34.6986 19.374 33.8167 18.5082 32.7525 17.9944C33.6548 17.3074 34.2387 16.2226 34.2387 15.0035ZM30.481 17.4722C29.1197 17.4722 28.0123 16.3647 28.0123 15.0035C28.0123 13.6422 29.1197 12.5347 30.481 12.5347C31.8422 12.5347 32.9497 13.6422 32.9497 15.0035C32.9497 16.3647 31.8422 17.4722 30.481 17.4722ZM37.5611 21.7557C37.5766 21.7557 37.5899 21.7557 37.6009 21.7823C37.6119 21.8089 37.6025 21.8182 37.5916 21.8291L35.9257 23.4951C35.4064 24.0145 35.4064 24.8595 35.9257 25.379L39.6181 29.0713L39.6189 29.0721L39.8625 29.3157L38.951 30.2271L35.0142 26.2903C34.7545 26.0307 34.4134 25.9009 34.0723 25.9009C33.7312 25.9009 33.3902 26.0307 33.1304 26.2903L31.4645 27.9562C31.4536 27.9671 31.4444 27.9765 31.4176 27.9656C31.3911 27.9546 31.3911 27.9413 31.3911 27.9258V21.7988C31.3911 21.7752 31.4104 21.7558 31.434 21.7558L37.5611 21.7557ZM34.8721 27.9713H33.2724L34.0419 27.2019C34.0586 27.185 34.0861 27.1852 34.1026 27.2019L34.8721 27.9713ZM42.7109 27.9713H41.4219V6.22778C41.4219 5.39857 40.7472 4.72388 39.918 4.72388H4.08203C3.25282 4.72388 2.57812 5.39857 2.57812 6.22778V11.8359C2.57812 12.1918 2.86662 12.4804 3.22266 12.4804C3.5787 12.4804 3.86719 12.1918 3.86719 11.8359V6.22778C3.86719 6.10936 3.96352 6.01294 4.08203 6.01294H39.918C40.0365 6.01294 40.1328 6.10936 40.1328 6.22778V27.7629L36.8372 24.4673C36.8204 24.4506 36.8204 24.4232 36.8372 24.4065L38.5031 22.7406C38.8853 22.3583 38.9988 21.7884 38.7918 21.2888C38.5849 20.7893 38.1019 20.4666 37.5611 20.4666H37.4351C37.5141 20.185 37.5547 19.8917 37.5547 19.5924V11.8903C37.5547 10.1133 36.109 8.66763 34.332 8.66763H26.63C24.853 8.66763 23.4073 10.1133 23.4073 11.8903V19.5924C23.4073 21.0664 24.4024 22.3116 25.7558 22.6936C25.7607 22.6949 25.7654 22.6965 25.7703 22.6977C26.0442 22.7736 26.3323 22.815 26.63 22.815H28.1684C28.5245 22.815 28.813 22.5265 28.813 22.1705C28.813 21.8144 28.5245 21.5259 28.1684 21.5259H26.707C27.2194 19.9125 28.7412 18.7613 30.4809 18.7613C31.7918 18.7613 33.0046 19.4194 33.7342 20.4667H31.434C30.6995 20.4667 30.1019 21.0642 30.1019 21.7987V24.1041H26.6299C26.2738 24.1041 25.9854 24.3926 25.9854 24.7486C25.9854 25.1046 26.2738 25.3931 26.6299 25.3931H30.1019V27.9257C30.1019 27.941 30.1031 27.9561 30.1036 27.9713H3.86719V14.414C3.86719 14.0581 3.5787 13.7695 3.22266 13.7695C2.86662 13.7695 2.57812 14.0581 2.57812 14.414V27.9713H1.28906V5.36841C1.28906 4.30218 2.15652 3.43481 3.22266 3.43481H40.7773C41.8435 3.43481 42.7109 4.30218 42.7109 5.36841V27.9713ZM8.79837 22.6949C8.80146 22.6956 8.80447 22.6967 8.80756 22.6974C9.0817 22.7735 9.37002 22.815 9.66805 22.815H17.3701C19.0095 22.8471 20.6266 21.3825 20.5928 19.5924V11.8903C20.5928 10.1133 19.1471 8.66763 17.3701 8.66763H9.66797C7.89095 8.66763 6.44531 10.1133 6.44531 11.8903V19.5924C6.44531 21.0681 7.44262 22.3143 8.79837 22.6949ZM9.74497 21.526C10.2576 19.9126 11.7794 18.7613 13.519 18.7613C15.2587 18.7613 16.7805 19.9126 17.2929 21.526H9.74497ZM11.0504 15.0035C11.0504 13.6423 12.1578 12.5348 13.5191 12.5348C14.8803 12.5348 15.9878 13.6423 15.9878 15.0035C15.9878 16.3648 14.8803 17.4723 13.5191 17.4723C12.1578 17.4723 11.0504 16.3648 11.0504 15.0035ZM7.73438 11.8903C7.73438 10.8241 8.60183 9.9567 9.66797 9.9567H17.37C18.4362 9.9567 19.3036 10.8241 19.3036 11.8903V19.5924C19.3036 20.2267 18.9966 20.7905 18.5235 21.1434C18.0827 19.7507 17.0759 18.6171 15.7904 17.9946C16.6928 17.3076 17.2769 16.2227 17.2769 15.0035C17.2769 12.9315 15.5912 11.2458 13.5191 11.2458C11.447 11.2458 9.7613 12.9315 9.7613 15.0035C9.7613 16.2227 10.3452 17.3076 11.2478 17.9946C9.9623 18.6171 8.95537 19.7507 8.51469 21.1434C8.04143 20.7906 7.73438 20.2267 7.73438 19.5924V11.8903Z" fill="#FF841D"/>
</svg>
