<svg width="42" height="42" viewBox="0 0 42 42" fill="none" xmlns="http://www.w3.org/2000/svg">
<g clip-path="url(#clip0_0_900)">
<path d="M9.45654 6.66553C9.79633 6.66553 10.0718 6.39008 10.0718 6.05029C10.0718 5.71051 9.79633 5.43506 9.45654 5.43506C9.11676 5.43506 8.84131 5.71051 8.84131 6.05029C8.84131 6.39008 9.11676 6.66553 9.45654 6.66553Z" fill="#FF841D"/>
<path d="M12.2661 6.66553C12.6059 6.66553 12.8813 6.39008 12.8813 6.05029C12.8813 5.71051 12.6059 5.43506 12.2661 5.43506C11.9263 5.43506 11.6509 5.71051 11.6509 6.05029C11.6509 6.39008 11.9263 6.66553 12.2661 6.66553Z" fill="#FF841D"/>
<path d="M15.0757 6.66553C15.4155 6.66553 15.6909 6.39008 15.6909 6.05029C15.6909 5.71051 15.4155 5.43506 15.0757 5.43506C14.7359 5.43506 14.4604 5.71051 14.4604 6.05029C14.4604 6.39008 14.7359 6.66553 15.0757 6.66553Z" fill="#FF841D"/>
<path d="M18.5415 37.5293H15.8345C15.4947 37.5293 15.2192 37.8048 15.2192 38.1445C15.2192 38.4843 15.4947 38.7598 15.8345 38.7598H18.5415C18.8813 38.7598 19.1567 38.4843 19.1567 38.1445C19.1567 37.8048 18.8813 37.5293 18.5415 37.5293Z" fill="#FF841D"/>
<path d="M36.1799 11.2668C35.0313 10.1182 33.7173 9.23377 32.3142 8.61164V3.1468C32.3142 1.41168 30.9026 0 29.1674 0H5.20841C3.4732 0 2.06152 1.41168 2.06152 3.1468V38.8532C2.06152 40.5884 3.4732 42 5.20841 42H29.1674C30.9026 42 32.3142 40.5884 32.3142 38.8532V32.0998C33.7173 31.4777 35.0313 30.5931 36.1799 29.4446C41.1915 24.4329 41.1915 16.2784 36.1799 11.2668ZM5.20841 40.7695C4.15176 40.7695 3.29207 39.9099 3.29207 38.8532V3.1468C3.29199 2.09016 4.15168 1.23047 5.20841 1.23047H29.1674C30.2242 1.23047 31.0838 2.09016 31.0838 3.1468V8.1398C30.3854 7.91282 29.6714 7.74679 28.9501 7.64228V5.15534C28.9501 4.1676 28.1466 3.3641 27.1589 3.3641H7.21694C6.2292 3.3641 5.42571 4.1676 5.42571 5.15534V34.0593C5.42571 34.9699 6.10886 35.7235 6.98955 35.8356L6.13552 36.5856C5.23072 37.3802 5.18536 38.7773 6.03692 39.6288L7.17757 40.7695H5.20841ZM17.8509 33.3513C18.1557 33.0042 18.2688 32.5506 18.1976 32.1232L19.5532 30.7676C21.7927 32.3909 24.4417 33.2032 27.0909 33.2032C27.3006 33.2032 27.5102 33.198 27.7197 33.1878V34.0591C27.7197 34.3684 27.4682 34.6199 27.1589 34.6199H16.7368L17.8509 33.3513ZM16.0513 33.5359L13.9108 31.3953L14.9072 30.5204C15.0087 30.4312 15.1636 30.4357 15.2595 30.5318L16.9148 32.1871C17.0107 32.2829 17.0157 32.4377 16.9263 32.5395L16.0513 33.5359ZM17.5244 31.0565L16.3902 29.9223L17.453 28.8596C17.8274 29.2829 18.1788 29.6326 18.5874 29.9935L17.5244 31.0565ZM15.3234 29.2489C14.8961 29.1777 14.4424 29.2908 14.0953 29.5957L8.37375 34.6201H7.21694C6.90768 34.6201 6.65618 34.3685 6.65618 34.0593V8.73633H21.5949C20.2943 9.35 19.0759 10.193 18.0021 11.2668C15.5744 13.6945 14.2373 16.9224 14.2373 20.3557C14.2373 23.1016 15.0934 25.7156 16.6779 27.8946L15.3234 29.2489ZM6.65618 7.50586V5.15534C6.65618 4.84608 6.90768 4.59457 7.21694 4.59457H27.159C27.4682 4.59457 27.7197 4.84608 27.7197 5.15534V7.50586H6.65618ZM9.48018 40.7695H9.10694C8.95002 40.7349 8.80531 40.6571 8.68801 40.5398L6.90695 38.7587C6.55823 38.4101 6.5739 37.8381 6.94739 37.5102L12.9843 32.2089L15.2377 34.4623L9.93644 40.4992C9.81454 40.6382 9.65606 40.7307 9.48018 40.7695ZM31.0838 38.8532C31.0838 39.9098 30.2242 40.7695 29.1674 40.7695H11.3367L15.6563 35.8505H27.159C28.1466 35.8505 28.9502 35.047 28.9502 34.0593V33.0692C29.6715 32.9646 30.3855 32.7986 31.0839 32.5716V38.8532H31.0838ZM35.3098 28.5745C28.0212 35.863 15.4678 30.6262 15.4678 20.3557C15.4678 17.2511 16.6768 14.3323 18.8721 12.1369C23.4039 7.6052 30.7777 7.60495 35.3098 12.1369C39.8416 16.6688 39.8416 24.0426 35.3098 28.5745Z" fill="#FF841D"/>
<path d="M32.377 27.2787C28.9288 29.919 24.0087 29.5904 20.9323 26.5142C17.8537 23.4355 17.5268 18.513 20.172 15.0641C20.3788 14.7944 20.3278 14.4082 20.0582 14.2014C19.7886 13.9946 19.4024 14.0456 19.1956 14.3152C16.1761 18.2522 16.5487 23.8706 20.0622 27.3842C21.9849 29.3069 24.5389 30.289 27.1027 30.289C29.2202 30.289 31.3445 29.619 33.125 28.2556C33.3948 28.049 33.4459 27.6628 33.2395 27.3931C33.033 27.1234 32.6469 27.072 32.377 27.2787Z" fill="#FF841D"/>
<path d="M34.1196 13.3271C30.7044 9.91203 25.3572 9.43838 21.4046 12.2012C21.1261 12.3959 21.0582 12.7794 21.2529 13.0579C21.4476 13.3365 21.8312 13.4044 22.1096 13.2097C25.5722 10.7894 30.2572 11.2048 33.2495 14.1972C36.2396 17.1871 36.6565 21.8697 34.2411 25.3314C34.0467 25.61 34.115 25.9935 34.3935 26.188C34.5008 26.2628 34.6236 26.2988 34.745 26.2988C34.9394 26.2988 35.1305 26.207 35.2501 26.0356C38.0074 22.084 37.532 16.7393 34.1196 13.3271Z" fill="#FF841D"/>
</g>
<defs>
<clipPath id="clip0_0_900">
<rect width="42" height="42" fill="white"/>
</clipPath>
</defs>
</svg>
